<svg width="348" height="36" viewBox="0 0 348 36" fill="none" xmlns="http://www.w3.org/2000/svg">
<path d="M14.744 35.432C12.984 35.432 11.528 35.048 10.376 34.28C9.256 33.512 8.504 32.392 8.12 30.92L0.68 1.784C1.608 1.24 2.728 0.967998 4.04 0.967998C5.352 0.967998 6.408 1.256 7.208 1.832C8.008 2.408 8.536 3.256 8.792 4.376L12.44 21.08L11.432 25.064L11.912 25.208L18.008 3.368C18.232 2.632 18.616 2.056 19.16 1.64C19.704 1.192 20.36 0.967998 21.128 0.967998C21.896 0.967998 22.552 1.192 23.096 1.64C23.672 2.056 24.056 2.632 24.248 3.368L29.048 21.56L28.04 25.784L28.664 25.976L33.464 4.376C33.72 3.256 34.248 2.408 35.048 1.832C35.848 1.256 36.904 0.967998 38.216 0.967998C39.528 0.967998 40.648 1.24 41.576 1.784L34.136 30.92C33.752 32.392 32.984 33.512 31.832 34.28C30.712 35.048 29.272 35.432 27.512 35.432L20.504 9.56L20.072 9.704L20.888 12.728L14.744 35.432ZM46.85 6.104C46.85 4.504 47.458 3.256 48.674 2.36C49.922 1.432 51.666 0.967998 53.906 0.967998V30.296C53.906 31.928 53.282 33.192 52.034 34.088C50.818 34.984 49.09 35.432 46.85 35.432V6.104ZM73.724 35.432C69.244 35.432 65.692 34.664 63.068 33.128C60.476 31.592 59.18 29.464 59.18 26.744C59.18 25.56 59.628 24.6 60.524 23.864C61.42 23.128 62.924 22.76 65.036 22.76C65.164 25.096 65.964 26.872 67.436 28.088C68.94 29.272 71.036 29.864 73.724 29.864C75.804 29.864 77.436 29.512 78.62 28.808C79.804 28.072 80.396 27.064 80.396 25.784C80.396 24.92 80.172 24.216 79.724 23.672C79.276 23.128 78.492 22.632 77.372 22.184C76.284 21.736 74.684 21.272 72.572 20.792C69.372 20.056 66.86 19.224 65.036 18.296C63.212 17.368 61.884 16.264 61.052 14.984C60.252 13.704 59.852 12.104 59.852 10.184C59.852 8.36 60.396 6.76 61.484 5.384C62.604 3.976 64.156 2.888 66.14 2.12C68.124 1.352 70.428 0.967998 73.052 0.967998C75.548 0.967998 77.788 1.304 79.772 1.976C81.756 2.616 83.308 3.528 84.428 4.712C85.548 5.896 86.108 7.256 86.108 8.792C86.108 9.976 85.66 10.92 84.764 11.624C83.9 12.296 82.46 12.664 80.444 12.728C80.284 10.584 79.628 9.016 78.476 8.024C77.324 7.032 75.516 6.536 73.052 6.536C71.036 6.536 69.484 6.856 68.396 7.496C67.308 8.136 66.764 9.064 66.764 10.28C66.764 11.112 66.972 11.8 67.388 12.344C67.804 12.856 68.508 13.32 69.5 13.736C70.524 14.152 71.98 14.568 73.868 14.984C77.164 15.72 79.772 16.568 81.692 17.528C83.644 18.456 85.052 19.576 85.916 20.888C86.812 22.2 87.26 23.816 87.26 25.736C87.26 27.688 86.7 29.4 85.58 30.872C84.492 32.344 82.924 33.48 80.876 34.28C78.86 35.048 76.476 35.432 73.724 35.432ZM91.5931 4.616C91.5931 3.72 91.9291 2.968 92.6011 2.36C93.3051 1.72 94.1531 1.4 95.1451 1.4H116.601C116.601 3.512 116.249 5.048 115.545 6.008C114.841 6.968 113.705 7.448 112.137 7.448H98.6491V15.032H111.225C111.225 17.144 110.873 18.68 110.169 19.64C109.465 20.6 108.329 21.08 106.761 21.08H98.6491V28.952H113.145C114.681 28.952 115.801 29.432 116.505 30.392C117.209 31.352 117.561 32.888 117.561 35H95.1451C94.1531 35 93.3051 34.696 92.6011 34.088C91.9291 33.48 91.5931 32.712 91.5931 31.784V4.616ZM134.249 4.616C134.249 3.72 134.585 2.968 135.257 2.36C135.961 1.72 136.809 1.4 137.801 1.4H159.257C159.257 3.512 158.905 5.048 158.201 6.008C157.497 6.968 156.361 7.448 154.793 7.448H141.305V15.032H153.881C153.881 17.144 153.529 18.68 152.825 19.64C152.121 20.6 150.985 21.08 149.417 21.08H141.305V28.952H155.801C157.337 28.952 158.457 29.432 159.161 30.392C159.865 31.352 160.217 32.888 160.217 35H137.801C136.809 35 135.961 34.696 135.257 34.088C134.585 33.48 134.249 32.712 134.249 31.784V4.616ZM172.144 35.432C170.448 35.432 168.912 35.064 167.536 34.328C166.16 33.56 165.072 32.52 164.272 31.208C163.472 29.864 163.072 28.36 163.072 26.696V19.304C163.072 17.64 163.488 16.152 164.32 14.84C165.184 13.496 166.368 12.456 167.872 11.72C169.376 10.952 171.04 10.568 172.864 10.568C173.952 10.568 175.12 10.792 176.368 11.24C177.648 11.688 178.704 12.312 179.536 13.112L179.728 12.872C179.568 12.616 179.216 12.296 178.672 11.912V5.288C178.672 3.944 179.216 2.888 180.304 2.12C181.424 1.352 183.104 0.967998 185.344 0.967998V31.064C185.344 32.312 184.848 33.352 183.856 34.184C182.864 35.016 181.344 35.432 179.296 35.432V32.84C179.68 32.36 179.984 31.928 180.208 31.544L179.968 31.352C178.944 32.728 177.84 33.752 176.656 34.424C175.504 35.096 174 35.432 172.144 35.432ZM174.208 29.768C175.552 29.768 176.64 29.464 177.472 28.856C178.336 28.216 178.768 27.416 178.768 26.456V19.544C178.768 18.616 178.336 17.832 177.472 17.192C176.64 16.552 175.552 16.232 174.208 16.232C172.736 16.232 171.6 16.536 170.8 17.144C170.032 17.752 169.648 18.616 169.648 19.736V26.216C169.648 27.368 170.032 28.248 170.8 28.856C171.6 29.464 172.736 29.768 174.208 29.768ZM212.384 30.44C212.384 32.04 211.856 33.272 210.8 34.136C209.744 35 208.176 35.432 206.096 35.432V32.6C206.576 32.088 206.976 31.544 207.296 30.968L206.96 30.776C204.944 33.88 202.224 35.432 198.8 35.432C197.2 35.432 195.744 35.064 194.432 34.328C193.12 33.56 192.08 32.504 191.312 31.16C190.576 29.784 190.208 28.232 190.208 26.504V14.408C190.208 13.032 190.736 12.056 191.792 11.48C192.88 10.872 194.544 10.568 196.784 10.568V26.024C196.784 27.176 197.136 28.088 197.84 28.76C198.544 29.432 199.568 29.768 200.912 29.768C202.448 29.768 203.648 29.288 204.512 28.328C205.376 27.336 205.808 26.072 205.808 24.536V14.408C205.808 13.032 206.336 12.056 207.392 11.48C208.48 10.872 210.144 10.568 212.384 10.568V30.44ZM228.247 35.432C226.135 35.432 224.263 35.048 222.631 34.28C220.999 33.512 219.719 32.456 218.791 31.112C217.895 29.736 217.447 28.184 217.447 26.456V20.072C217.447 18.216 217.895 16.568 218.791 15.128C219.719 13.688 220.999 12.568 222.631 11.768C224.263 10.968 226.119 10.568 228.199 10.568C230.151 10.568 231.879 10.856 233.383 11.432C234.887 11.976 236.055 12.744 236.887 13.736C237.751 14.728 238.183 15.864 238.183 17.144C238.183 18.2 237.767 19.048 236.935 19.688C236.103 20.328 234.999 20.648 233.623 20.648C233.207 20.648 232.903 20.632 232.711 20.6C232.711 19.32 232.311 18.28 231.511 17.48C230.711 16.648 229.671 16.232 228.391 16.232C227.111 16.232 226.055 16.632 225.223 17.432C224.423 18.2 224.023 19.192 224.023 20.408V25.976C224.023 27.096 224.423 28.008 225.223 28.712C226.055 29.416 227.127 29.768 228.439 29.768C229.719 29.768 230.759 29.368 231.559 28.568C232.391 27.768 232.807 26.728 232.807 25.448C233.031 25.416 233.351 25.4 233.767 25.4C235.143 25.4 236.247 25.72 237.079 26.36C237.911 26.968 238.327 27.8 238.327 28.856C238.327 30.136 237.895 31.272 237.031 32.264C236.199 33.256 235.015 34.04 233.479 34.616C231.943 35.16 230.199 35.432 228.247 35.432ZM249.889 35.432C248.321 35.432 246.849 35.128 245.473 34.52C244.129 33.88 243.041 32.968 242.209 31.784C241.377 30.568 240.961 29.112 240.961 27.416C240.961 25.72 241.409 24.264 242.305 23.048C243.201 21.8 244.385 20.856 245.857 20.216C247.361 19.576 248.993 19.256 250.753 19.256C252.225 19.256 253.521 19.48 254.641 19.928C255.793 20.376 256.865 21.032 257.857 21.896L258.097 21.608C257.425 21 256.897 20.568 256.513 20.312V19.688C256.513 18.472 256.065 17.512 255.169 16.808C254.305 16.072 253.073 15.704 251.473 15.704C250.065 15.704 248.817 15.96 247.729 16.472C246.641 16.984 245.761 17.736 245.089 18.728C244.321 18.536 243.665 18.184 243.121 17.672C242.609 17.128 242.353 16.536 242.353 15.896C242.353 14.904 242.785 14.008 243.649 13.208C244.513 12.376 245.681 11.736 247.153 11.288C248.657 10.808 250.305 10.568 252.097 10.568C255.585 10.568 258.273 11.368 260.161 12.968C262.049 14.568 262.993 16.744 262.993 19.496V31.16C262.993 32.664 262.497 33.752 261.505 34.424C260.545 35.096 259.009 35.432 256.897 35.432V33.56C257.377 33.112 257.761 32.712 258.049 32.36L257.809 32.12C256.753 33.208 255.649 34.04 254.497 34.616C253.345 35.16 251.809 35.432 249.889 35.432ZM251.713 30.728C253.249 30.728 254.449 30.44 255.313 29.864C256.177 29.288 256.609 28.456 256.609 27.368C256.609 26.312 256.161 25.48 255.265 24.872C254.401 24.264 253.217 23.96 251.713 23.96C250.369 23.96 249.297 24.264 248.497 24.872C247.729 25.48 247.345 26.312 247.345 27.368C247.345 28.456 247.729 29.288 248.497 29.864C249.297 30.44 250.369 30.728 251.713 30.728ZM277.922 35.432C275.202 35.432 273.202 34.648 271.922 33.08C270.642 31.512 270.002 29.496 270.002 27.032V15.848H264.914C264.914 14.216 265.218 13 265.826 12.2C266.434 11.4 267.234 11 268.226 11H270.098V7.208C270.098 5.832 270.626 4.856 271.682 4.28C272.738 3.672 274.338 3.368 276.482 3.368V11H282.866C282.866 12.728 282.546 13.976 281.906 14.744C281.266 15.48 280.21 15.848 278.738 15.848H276.578V26.792C276.578 27.848 276.786 28.616 277.202 29.096C277.618 29.544 278.338 29.768 279.362 29.768C280.482 29.768 281.634 29.448 282.818 28.808C283.17 29.128 283.442 29.528 283.634 30.008C283.858 30.488 283.97 30.968 283.97 31.448C283.97 32.088 283.746 32.712 283.298 33.32C282.85 33.928 282.162 34.44 281.234 34.856C280.338 35.24 279.234 35.432 277.922 35.432ZM292.553 8.744C291.337 8.744 290.313 8.392 289.481 7.688C288.681 6.952 288.281 6.008 288.281 4.856C288.281 3.704 288.681 2.776 289.481 2.072C290.313 1.336 291.337 0.967998 292.553 0.967998C293.769 0.967998 294.777 1.336 295.577 2.072C296.409 2.776 296.825 3.704 296.825 4.856C296.825 6.008 296.409 6.952 295.577 7.688C294.777 8.392 293.769 8.744 292.553 8.744ZM289.241 14.408C289.241 13.032 289.785 12.056 290.873 11.48C291.961 10.872 293.609 10.568 295.817 10.568V31.592C295.817 32.968 295.273 33.96 294.185 34.568C293.097 35.144 291.449 35.432 289.241 35.432V14.408ZM311.258 35.432C309.146 35.432 307.226 35.048 305.498 34.28C303.77 33.512 302.41 32.456 301.418 31.112C300.426 29.736 299.93 28.184 299.93 26.456V20.072C299.93 18.312 300.41 16.712 301.37 15.272C302.33 13.8 303.674 12.648 305.402 11.816C307.13 10.984 309.082 10.568 311.258 10.568C313.434 10.568 315.386 10.984 317.114 11.816C318.842 12.648 320.186 13.8 321.146 15.272C322.106 16.712 322.586 18.312 322.586 20.072V26.456C322.586 28.184 322.09 29.736 321.098 31.112C320.106 32.456 318.746 33.512 317.018 34.28C315.29 35.048 313.37 35.432 311.258 35.432ZM311.258 29.768C312.762 29.768 313.93 29.432 314.762 28.76C315.594 28.088 316.01 27.16 316.01 25.976V20.408C316.01 19.16 315.578 18.152 314.714 17.384C313.882 16.616 312.73 16.232 311.258 16.232C309.786 16.232 308.618 16.616 307.754 17.384C306.922 18.152 306.506 19.16 306.506 20.408V25.976C306.506 27.16 306.922 28.088 307.754 28.76C308.586 29.432 309.754 29.768 311.258 29.768ZM325.687 15.56C325.687 13.96 326.215 12.728 327.271 11.864C328.327 11 329.895 10.568 331.975 10.568V13.4C331.495 13.912 331.095 14.456 330.775 15.032L331.111 15.224C332.071 13.752 333.287 12.616 334.759 11.816C336.263 10.984 337.927 10.568 339.751 10.568C341.351 10.568 342.759 10.936 343.975 11.672C345.223 12.408 346.199 13.432 346.903 14.744C347.607 16.024 347.959 17.464 347.959 19.064V31.592C347.959 32.968 347.415 33.96 346.327 34.568C345.239 35.144 343.591 35.432 341.383 35.432V20.072C341.383 18.984 341.031 18.072 340.327 17.336C339.655 16.6 338.695 16.232 337.447 16.232C335.911 16.232 334.663 16.728 333.703 17.72C332.743 18.712 332.263 19.96 332.263 21.464V31.592C332.263 32.968 331.719 33.96 330.631 34.568C329.575 35.144 327.927 35.432 325.687 35.432V15.56Z" fill="#4D4D4D"/>
</svg>
