<svg width="369" height="46" viewBox="0 0 369 46" fill="none" xmlns="http://www.w3.org/2000/svg">
<path d="M4.192 35C3.232 35 2.4 34.696 1.696 34.088C0.992 33.448 0.64 32.68 0.64 31.784V4.616C0.64 3.72 0.976 2.968 1.648 2.36C2.352 1.72 3.2 1.4 4.192 1.4H16.912C20.112 1.4 22.656 2.264 24.544 3.992C26.464 5.72 27.424 8.04 27.424 10.952C27.424 12.264 27.056 13.528 26.32 14.744C25.616 15.928 24.672 16.872 23.488 17.576V17.768C25.12 18.344 26.416 19.288 27.376 20.6C28.336 21.912 28.816 23.368 28.816 24.968C28.816 26.92 28.352 28.664 27.424 30.2C26.496 31.704 25.2 32.888 23.536 33.752C21.872 34.584 19.968 35 17.824 35H4.192ZM16.816 15.272C17.808 15.272 18.64 14.888 19.312 14.12C20.016 13.32 20.368 12.36 20.368 11.24C20.368 10.024 20.048 9.08 19.408 8.408C18.768 7.704 17.904 7.352 16.816 7.352H7.504V15.272H16.816ZM17.776 29.048C18.992 29.048 19.952 28.696 20.656 27.992C21.392 27.256 21.76 26.28 21.76 25.064C21.76 23.816 21.408 22.856 20.704 22.184C20 21.48 19.024 21.128 17.776 21.128H7.504V29.048H17.776ZM35.2881 45.032C33.9441 45.032 32.8881 44.552 32.1201 43.592C31.3521 42.664 30.9681 41.288 30.9681 39.464C31.8961 39.656 32.7441 39.752 33.5121 39.752C34.3121 39.752 34.9681 39.624 35.4801 39.368C35.9921 39.144 36.4721 38.712 36.9201 38.072C37.4001 37.432 37.9281 36.472 38.5041 35.192L39.2241 33.56L30.0081 11.096C30.2321 10.936 30.6481 10.808 31.2561 10.712C31.8961 10.616 32.4241 10.568 32.8401 10.568C33.8321 10.568 34.7441 10.776 35.5761 11.192C36.4401 11.608 37.0161 12.2 37.3041 12.968L42.0081 25.496L41.1921 27.848L41.6241 27.992L47.4801 12.968C47.8001 12.168 48.3601 11.576 49.1601 11.192C49.9921 10.776 50.9201 10.568 51.9441 10.568C52.3601 10.568 52.8721 10.616 53.4801 10.712C54.1201 10.808 54.5521 10.936 54.7761 11.096L44.0721 37.112C42.9521 39.832 41.7041 41.832 40.3281 43.112C38.9841 44.392 37.3041 45.032 35.2881 45.032ZM85.0521 35.432C80.5721 35.432 77.0201 34.664 74.3961 33.128C71.8041 31.592 70.5081 29.464 70.5081 26.744C70.5081 25.56 70.9561 24.6 71.8521 23.864C72.7481 23.128 74.2521 22.76 76.3641 22.76C76.4921 25.096 77.2921 26.872 78.7641 28.088C80.2681 29.272 82.3641 29.864 85.0521 29.864C87.1321 29.864 88.7641 29.512 89.9481 28.808C91.1321 28.072 91.7241 27.064 91.7241 25.784C91.7241 24.92 91.5001 24.216 91.0521 23.672C90.6041 23.128 89.8201 22.632 88.7001 22.184C87.6121 21.736 86.0121 21.272 83.9001 20.792C80.7001 20.056 78.1881 19.224 76.3641 18.296C74.5401 17.368 73.2121 16.264 72.3801 14.984C71.5801 13.704 71.1801 12.104 71.1801 10.184C71.1801 8.36 71.7241 6.76 72.8121 5.384C73.9321 3.976 75.4841 2.888 77.4681 2.12C79.4521 1.352 81.7561 0.967998 84.3801 0.967998C86.8761 0.967998 89.1161 1.304 91.1001 1.976C93.0841 2.616 94.6361 3.528 95.7561 4.712C96.8761 5.896 97.4361 7.256 97.4361 8.792C97.4361 9.976 96.9881 10.92 96.0921 11.624C95.2281 12.296 93.7881 12.664 91.7721 12.728C91.6121 10.584 90.9561 9.016 89.8041 8.024C88.6521 7.032 86.8441 6.536 84.3801 6.536C82.3641 6.536 80.8121 6.856 79.7241 7.496C78.6361 8.136 78.0921 9.064 78.0921 10.28C78.0921 11.112 78.3001 11.8 78.7161 12.344C79.1321 12.856 79.8361 13.32 80.8281 13.736C81.8521 14.152 83.3081 14.568 85.1961 14.984C88.4921 15.72 91.1001 16.568 93.0201 17.528C94.9721 18.456 96.3801 19.576 97.2441 20.888C98.1401 22.2 98.5881 23.816 98.5881 25.736C98.5881 27.688 98.0281 29.4 96.9081 30.872C95.8201 32.344 94.2521 33.48 92.2041 34.28C90.1881 35.048 87.8041 35.432 85.0521 35.432ZM113.481 35.432C111.369 35.432 109.497 35.048 107.865 34.28C106.233 33.512 104.953 32.456 104.025 31.112C103.129 29.736 102.681 28.184 102.681 26.456V20.072C102.681 18.216 103.129 16.568 104.025 15.128C104.953 13.688 106.233 12.568 107.865 11.768C109.497 10.968 111.353 10.568 113.433 10.568C115.385 10.568 117.113 10.856 118.617 11.432C120.121 11.976 121.289 12.744 122.121 13.736C122.985 14.728 123.417 15.864 123.417 17.144C123.417 18.2 123.001 19.048 122.169 19.688C121.337 20.328 120.233 20.648 118.857 20.648C118.441 20.648 118.137 20.632 117.945 20.6C117.945 19.32 117.545 18.28 116.745 17.48C115.945 16.648 114.905 16.232 113.625 16.232C112.345 16.232 111.289 16.632 110.457 17.432C109.657 18.2 109.257 19.192 109.257 20.408V25.976C109.257 27.096 109.657 28.008 110.457 28.712C111.289 29.416 112.361 29.768 113.673 29.768C114.953 29.768 115.993 29.368 116.793 28.568C117.625 27.768 118.041 26.728 118.041 25.448C118.265 25.416 118.585 25.4 119.001 25.4C120.377 25.4 121.481 25.72 122.313 26.36C123.145 26.968 123.561 27.8 123.561 28.856C123.561 30.136 123.129 31.272 122.265 32.264C121.433 33.256 120.249 34.04 118.713 34.616C117.177 35.16 115.433 35.432 113.481 35.432ZM127.859 5.96C127.859 4.392 128.419 3.176 129.539 2.312C130.691 1.416 132.323 0.967998 134.435 0.967998V13.4C133.955 13.912 133.555 14.456 133.235 15.032L133.571 15.224C135.715 12.12 138.499 10.568 141.923 10.568C143.523 10.568 144.931 10.936 146.147 11.672C147.395 12.408 148.371 13.432 149.075 14.744C149.779 16.024 150.131 17.464 150.131 19.064V31.592C150.131 32.968 149.587 33.96 148.499 34.568C147.411 35.144 145.763 35.432 143.555 35.432V20.072C143.555 18.984 143.203 18.072 142.499 17.336C141.827 16.6 140.867 16.232 139.619 16.232C138.083 16.232 136.835 16.728 135.875 17.72C134.915 18.712 134.435 19.96 134.435 21.464V31.592C134.435 32.968 133.891 33.96 132.803 34.568C131.715 35.144 130.067 35.432 127.859 35.432V5.96ZM154.999 4.616C154.999 3.72 155.335 2.968 156.007 2.36C156.711 1.72 157.559 1.4 158.551 1.4H180.007C180.007 3.512 179.655 5.048 178.951 6.008C178.247 6.968 177.111 7.448 175.543 7.448H162.055V15.032H174.631C174.631 17.144 174.279 18.68 173.575 19.64C172.871 20.6 171.735 21.08 170.167 21.08H162.055V28.952H176.551C178.087 28.952 179.207 29.432 179.911 30.392C180.615 31.352 180.967 32.888 180.967 35H158.551C157.559 35 156.711 34.696 156.007 34.088C155.335 33.48 154.999 32.712 154.999 31.784V4.616ZM192.894 35.432C191.198 35.432 189.662 35.064 188.286 34.328C186.91 33.56 185.822 32.52 185.022 31.208C184.222 29.864 183.822 28.36 183.822 26.696V19.304C183.822 17.64 184.238 16.152 185.07 14.84C185.934 13.496 187.118 12.456 188.622 11.72C190.126 10.952 191.79 10.568 193.614 10.568C194.702 10.568 195.87 10.792 197.118 11.24C198.398 11.688 199.454 12.312 200.286 13.112L200.478 12.872C200.318 12.616 199.966 12.296 199.422 11.912V5.288C199.422 3.944 199.966 2.888 201.054 2.12C202.174 1.352 203.854 0.967998 206.094 0.967998V31.064C206.094 32.312 205.598 33.352 204.606 34.184C203.614 35.016 202.094 35.432 200.046 35.432V32.84C200.43 32.36 200.734 31.928 200.958 31.544L200.718 31.352C199.694 32.728 198.59 33.752 197.406 34.424C196.254 35.096 194.75 35.432 192.894 35.432ZM194.958 29.768C196.302 29.768 197.39 29.464 198.222 28.856C199.086 28.216 199.518 27.416 199.518 26.456V19.544C199.518 18.616 199.086 17.832 198.222 17.192C197.39 16.552 196.302 16.232 194.958 16.232C193.486 16.232 192.35 16.536 191.55 17.144C190.782 17.752 190.398 18.616 190.398 19.736V26.216C190.398 27.368 190.782 28.248 191.55 28.856C192.35 29.464 193.486 29.768 194.958 29.768ZM233.134 30.44C233.134 32.04 232.606 33.272 231.55 34.136C230.494 35 228.926 35.432 226.846 35.432V32.6C227.326 32.088 227.726 31.544 228.046 30.968L227.71 30.776C225.694 33.88 222.974 35.432 219.55 35.432C217.95 35.432 216.494 35.064 215.182 34.328C213.87 33.56 212.83 32.504 212.062 31.16C211.326 29.784 210.958 28.232 210.958 26.504V14.408C210.958 13.032 211.486 12.056 212.542 11.48C213.63 10.872 215.294 10.568 217.534 10.568V26.024C217.534 27.176 217.886 28.088 218.59 28.76C219.294 29.432 220.318 29.768 221.662 29.768C223.198 29.768 224.398 29.288 225.262 28.328C226.126 27.336 226.558 26.072 226.558 24.536V14.408C226.558 13.032 227.086 12.056 228.142 11.48C229.23 10.872 230.894 10.568 233.134 10.568V30.44ZM248.997 35.432C246.885 35.432 245.013 35.048 243.381 34.28C241.749 33.512 240.469 32.456 239.541 31.112C238.645 29.736 238.197 28.184 238.197 26.456V20.072C238.197 18.216 238.645 16.568 239.541 15.128C240.469 13.688 241.749 12.568 243.381 11.768C245.013 10.968 246.869 10.568 248.949 10.568C250.901 10.568 252.629 10.856 254.133 11.432C255.637 11.976 256.805 12.744 257.637 13.736C258.501 14.728 258.933 15.864 258.933 17.144C258.933 18.2 258.517 19.048 257.685 19.688C256.853 20.328 255.749 20.648 254.373 20.648C253.957 20.648 253.653 20.632 253.461 20.6C253.461 19.32 253.061 18.28 252.261 17.48C251.461 16.648 250.421 16.232 249.141 16.232C247.861 16.232 246.805 16.632 245.973 17.432C245.173 18.2 244.773 19.192 244.773 20.408V25.976C244.773 27.096 245.173 28.008 245.973 28.712C246.805 29.416 247.877 29.768 249.189 29.768C250.469 29.768 251.509 29.368 252.309 28.568C253.141 27.768 253.557 26.728 253.557 25.448C253.781 25.416 254.101 25.4 254.517 25.4C255.893 25.4 256.997 25.72 257.829 26.36C258.661 26.968 259.077 27.8 259.077 28.856C259.077 30.136 258.645 31.272 257.781 32.264C256.949 33.256 255.765 34.04 254.229 34.616C252.693 35.16 250.949 35.432 248.997 35.432ZM270.639 35.432C269.071 35.432 267.599 35.128 266.223 34.52C264.879 33.88 263.791 32.968 262.959 31.784C262.127 30.568 261.711 29.112 261.711 27.416C261.711 25.72 262.159 24.264 263.055 23.048C263.951 21.8 265.135 20.856 266.607 20.216C268.111 19.576 269.743 19.256 271.503 19.256C272.975 19.256 274.271 19.48 275.391 19.928C276.543 20.376 277.615 21.032 278.607 21.896L278.847 21.608C278.175 21 277.647 20.568 277.263 20.312V19.688C277.263 18.472 276.815 17.512 275.919 16.808C275.055 16.072 273.823 15.704 272.223 15.704C270.815 15.704 269.567 15.96 268.479 16.472C267.391 16.984 266.511 17.736 265.839 18.728C265.071 18.536 264.415 18.184 263.871 17.672C263.359 17.128 263.103 16.536 263.103 15.896C263.103 14.904 263.535 14.008 264.399 13.208C265.263 12.376 266.431 11.736 267.903 11.288C269.407 10.808 271.055 10.568 272.847 10.568C276.335 10.568 279.023 11.368 280.911 12.968C282.799 14.568 283.743 16.744 283.743 19.496V31.16C283.743 32.664 283.247 33.752 282.255 34.424C281.295 35.096 279.759 35.432 277.647 35.432V33.56C278.127 33.112 278.511 32.712 278.799 32.36L278.559 32.12C277.503 33.208 276.399 34.04 275.247 34.616C274.095 35.16 272.559 35.432 270.639 35.432ZM272.463 30.728C273.999 30.728 275.199 30.44 276.063 29.864C276.927 29.288 277.359 28.456 277.359 27.368C277.359 26.312 276.911 25.48 276.015 24.872C275.151 24.264 273.967 23.96 272.463 23.96C271.119 23.96 270.047 24.264 269.247 24.872C268.479 25.48 268.095 26.312 268.095 27.368C268.095 28.456 268.479 29.288 269.247 29.864C270.047 30.44 271.119 30.728 272.463 30.728ZM298.672 35.432C295.952 35.432 293.952 34.648 292.672 33.08C291.392 31.512 290.752 29.496 290.752 27.032V15.848H285.664C285.664 14.216 285.968 13 286.576 12.2C287.184 11.4 287.984 11 288.976 11H290.848V7.208C290.848 5.832 291.376 4.856 292.432 4.28C293.488 3.672 295.088 3.368 297.232 3.368V11H303.616C303.616 12.728 303.296 13.976 302.656 14.744C302.016 15.48 300.96 15.848 299.488 15.848H297.328V26.792C297.328 27.848 297.536 28.616 297.952 29.096C298.368 29.544 299.088 29.768 300.112 29.768C301.232 29.768 302.384 29.448 303.568 28.808C303.92 29.128 304.192 29.528 304.384 30.008C304.608 30.488 304.72 30.968 304.72 31.448C304.72 32.088 304.496 32.712 304.048 33.32C303.6 33.928 302.912 34.44 301.984 34.856C301.088 35.24 299.984 35.432 298.672 35.432ZM313.303 8.744C312.087 8.744 311.063 8.392 310.231 7.688C309.431 6.952 309.031 6.008 309.031 4.856C309.031 3.704 309.431 2.776 310.231 2.072C311.063 1.336 312.087 0.967998 313.303 0.967998C314.519 0.967998 315.527 1.336 316.327 2.072C317.159 2.776 317.575 3.704 317.575 4.856C317.575 6.008 317.159 6.952 316.327 7.688C315.527 8.392 314.519 8.744 313.303 8.744ZM309.991 14.408C309.991 13.032 310.535 12.056 311.623 11.48C312.711 10.872 314.359 10.568 316.567 10.568V31.592C316.567 32.968 316.023 33.96 314.935 34.568C313.847 35.144 312.199 35.432 309.991 35.432V14.408ZM332.008 35.432C329.896 35.432 327.976 35.048 326.248 34.28C324.52 33.512 323.16 32.456 322.168 31.112C321.176 29.736 320.68 28.184 320.68 26.456V20.072C320.68 18.312 321.16 16.712 322.12 15.272C323.08 13.8 324.424 12.648 326.152 11.816C327.88 10.984 329.832 10.568 332.008 10.568C334.184 10.568 336.136 10.984 337.864 11.816C339.592 12.648 340.936 13.8 341.896 15.272C342.856 16.712 343.336 18.312 343.336 20.072V26.456C343.336 28.184 342.84 29.736 341.848 31.112C340.856 32.456 339.496 33.512 337.768 34.28C336.04 35.048 334.12 35.432 332.008 35.432ZM332.008 29.768C333.512 29.768 334.68 29.432 335.512 28.76C336.344 28.088 336.76 27.16 336.76 25.976V20.408C336.76 19.16 336.328 18.152 335.464 17.384C334.632 16.616 333.48 16.232 332.008 16.232C330.536 16.232 329.368 16.616 328.504 17.384C327.672 18.152 327.256 19.16 327.256 20.408V25.976C327.256 27.16 327.672 28.088 328.504 28.76C329.336 29.432 330.504 29.768 332.008 29.768ZM346.437 15.56C346.437 13.96 346.965 12.728 348.021 11.864C349.077 11 350.645 10.568 352.725 10.568V13.4C352.245 13.912 351.845 14.456 351.525 15.032L351.861 15.224C352.821 13.752 354.037 12.616 355.509 11.816C357.013 10.984 358.677 10.568 360.501 10.568C362.101 10.568 363.509 10.936 364.725 11.672C365.973 12.408 366.949 13.432 367.653 14.744C368.357 16.024 368.709 17.464 368.709 19.064V31.592C368.709 32.968 368.165 33.96 367.077 34.568C365.989 35.144 364.341 35.432 362.133 35.432V20.072C362.133 18.984 361.781 18.072 361.077 17.336C360.405 16.6 359.445 16.232 358.197 16.232C356.661 16.232 355.413 16.728 354.453 17.72C353.493 18.712 353.013 19.96 353.013 21.464V31.592C353.013 32.968 352.469 33.96 351.381 34.568C350.325 35.144 348.677 35.432 346.437 35.432V15.56Z" fill="#4D4D4D"/>
</svg>
