<svg width="299" height="36" viewBox="0 0 299 36" fill="none" xmlns="http://www.w3.org/2000/svg">
<path d="M15.224 35.432C10.744 35.432 7.192 34.664 4.568 33.128C1.976 31.592 0.68 29.464 0.68 26.744C0.68 25.56 1.128 24.6 2.024 23.864C2.92 23.128 4.424 22.76 6.536 22.76C6.664 25.096 7.464 26.872 8.936 28.088C10.44 29.272 12.536 29.864 15.224 29.864C17.304 29.864 18.936 29.512 20.12 28.808C21.304 28.072 21.896 27.064 21.896 25.784C21.896 24.92 21.672 24.216 21.224 23.672C20.776 23.128 19.992 22.632 18.872 22.184C17.784 21.736 16.184 21.272 14.072 20.792C10.872 20.056 8.36 19.224 6.536 18.296C4.712 17.368 3.384 16.264 2.552 14.984C1.752 13.704 1.352 12.104 1.352 10.184C1.352 8.36 1.896 6.76 2.984 5.384C4.104 3.976 5.656 2.888 7.64 2.12C9.624 1.352 11.928 0.967998 14.552 0.967998C17.048 0.967998 19.288 1.304 21.272 1.976C23.256 2.616 24.808 3.528 25.928 4.712C27.048 5.896 27.608 7.256 27.608 8.792C27.608 9.976 27.16 10.92 26.264 11.624C25.4 12.296 23.96 12.664 21.944 12.728C21.784 10.584 21.128 9.016 19.976 8.024C18.824 7.032 17.016 6.536 14.552 6.536C12.536 6.536 10.984 6.856 9.896 7.496C8.808 8.136 8.264 9.064 8.264 10.28C8.264 11.112 8.472 11.8 8.888 12.344C9.304 12.856 10.008 13.32 11 13.736C12.024 14.152 13.48 14.568 15.368 14.984C18.664 15.72 21.272 16.568 23.192 17.528C25.144 18.456 26.552 19.576 27.416 20.888C28.312 22.2 28.76 23.816 28.76 25.736C28.76 27.688 28.2 29.4 27.08 30.872C25.992 32.344 24.424 33.48 22.376 34.28C20.36 35.048 17.976 35.432 15.224 35.432ZM43.6531 35.432C41.5411 35.432 39.6691 35.048 38.0371 34.28C36.4051 33.512 35.1251 32.456 34.1971 31.112C33.3011 29.736 32.8531 28.184 32.8531 26.456V20.072C32.8531 18.216 33.3011 16.568 34.1971 15.128C35.1251 13.688 36.4051 12.568 38.0371 11.768C39.6691 10.968 41.5251 10.568 43.6051 10.568C45.5571 10.568 47.2851 10.856 48.7891 11.432C50.2931 11.976 51.4611 12.744 52.2931 13.736C53.1571 14.728 53.5891 15.864 53.5891 17.144C53.5891 18.2 53.1731 19.048 52.3411 19.688C51.5091 20.328 50.4051 20.648 49.0291 20.648C48.6131 20.648 48.3091 20.632 48.1171 20.6C48.1171 19.32 47.7171 18.28 46.9171 17.48C46.1171 16.648 45.0771 16.232 43.7971 16.232C42.5171 16.232 41.4611 16.632 40.6291 17.432C39.8291 18.2 39.4291 19.192 39.4291 20.408V25.976C39.4291 27.096 39.8291 28.008 40.6291 28.712C41.4611 29.416 42.5331 29.768 43.8451 29.768C45.1251 29.768 46.1651 29.368 46.9651 28.568C47.7971 27.768 48.2131 26.728 48.2131 25.448C48.4371 25.416 48.7571 25.4 49.1731 25.4C50.5491 25.4 51.6531 25.72 52.4851 26.36C53.3171 26.968 53.7331 27.8 53.7331 28.856C53.7331 30.136 53.3011 31.272 52.4371 32.264C51.6051 33.256 50.4211 34.04 48.8851 34.616C47.3491 35.16 45.6051 35.432 43.6531 35.432ZM58.0306 5.96C58.0306 4.392 58.5906 3.176 59.7106 2.312C60.8626 1.416 62.4946 0.967998 64.6066 0.967998V13.4C64.1266 13.912 63.7266 14.456 63.4066 15.032L63.7426 15.224C65.8866 12.12 68.6706 10.568 72.0946 10.568C73.6946 10.568 75.1026 10.936 76.3186 11.672C77.5666 12.408 78.5426 13.432 79.2466 14.744C79.9506 16.024 80.3026 17.464 80.3026 19.064V31.592C80.3026 32.968 79.7586 33.96 78.6706 34.568C77.5826 35.144 75.9346 35.432 73.7266 35.432V20.072C73.7266 18.984 73.3746 18.072 72.6706 17.336C71.9986 16.6 71.0386 16.232 69.7906 16.232C68.2546 16.232 67.0066 16.728 66.0466 17.72C65.0866 18.712 64.6066 19.96 64.6066 21.464V31.592C64.6066 32.968 64.0626 33.96 62.9746 34.568C61.8866 35.144 60.2386 35.432 58.0306 35.432V5.96ZM85.1713 4.616C85.1713 3.72 85.5073 2.968 86.1793 2.36C86.8833 1.72 87.7313 1.4 88.7233 1.4H110.179C110.179 3.512 109.827 5.048 109.123 6.008C108.419 6.968 107.283 7.448 105.715 7.448H92.2273V15.032H104.803C104.803 17.144 104.451 18.68 103.747 19.64C103.043 20.6 101.907 21.08 100.339 21.08H92.2273V28.952H106.723C108.259 28.952 109.379 29.432 110.083 30.392C110.787 31.352 111.139 32.888 111.139 35H88.7233C87.7313 35 86.8833 34.696 86.1793 34.088C85.5073 33.48 85.1713 32.712 85.1713 31.784V4.616ZM123.066 35.432C121.37 35.432 119.834 35.064 118.458 34.328C117.082 33.56 115.994 32.52 115.194 31.208C114.394 29.864 113.994 28.36 113.994 26.696V19.304C113.994 17.64 114.41 16.152 115.242 14.84C116.106 13.496 117.29 12.456 118.794 11.72C120.298 10.952 121.962 10.568 123.786 10.568C124.874 10.568 126.042 10.792 127.29 11.24C128.57 11.688 129.626 12.312 130.458 13.112L130.65 12.872C130.49 12.616 130.138 12.296 129.594 11.912V5.288C129.594 3.944 130.138 2.888 131.226 2.12C132.346 1.352 134.026 0.967998 136.266 0.967998V31.064C136.266 32.312 135.77 33.352 134.778 34.184C133.786 35.016 132.266 35.432 130.218 35.432V32.84C130.602 32.36 130.906 31.928 131.13 31.544L130.89 31.352C129.866 32.728 128.762 33.752 127.578 34.424C126.426 35.096 124.922 35.432 123.066 35.432ZM125.13 29.768C126.474 29.768 127.562 29.464 128.394 28.856C129.258 28.216 129.69 27.416 129.69 26.456V19.544C129.69 18.616 129.258 17.832 128.394 17.192C127.562 16.552 126.474 16.232 125.13 16.232C123.658 16.232 122.522 16.536 121.722 17.144C120.954 17.752 120.57 18.616 120.57 19.736V26.216C120.57 27.368 120.954 28.248 121.722 28.856C122.522 29.464 123.658 29.768 125.13 29.768ZM163.306 30.44C163.306 32.04 162.778 33.272 161.722 34.136C160.666 35 159.098 35.432 157.018 35.432V32.6C157.498 32.088 157.898 31.544 158.218 30.968L157.882 30.776C155.866 33.88 153.146 35.432 149.722 35.432C148.122 35.432 146.666 35.064 145.354 34.328C144.042 33.56 143.002 32.504 142.234 31.16C141.498 29.784 141.13 28.232 141.13 26.504V14.408C141.13 13.032 141.658 12.056 142.714 11.48C143.802 10.872 145.466 10.568 147.706 10.568V26.024C147.706 27.176 148.058 28.088 148.762 28.76C149.466 29.432 150.49 29.768 151.834 29.768C153.37 29.768 154.57 29.288 155.434 28.328C156.298 27.336 156.73 26.072 156.73 24.536V14.408C156.73 13.032 157.258 12.056 158.314 11.48C159.402 10.872 161.066 10.568 163.306 10.568V30.44ZM179.169 35.432C177.057 35.432 175.185 35.048 173.553 34.28C171.921 33.512 170.641 32.456 169.713 31.112C168.817 29.736 168.369 28.184 168.369 26.456V20.072C168.369 18.216 168.817 16.568 169.713 15.128C170.641 13.688 171.921 12.568 173.553 11.768C175.185 10.968 177.041 10.568 179.121 10.568C181.073 10.568 182.801 10.856 184.305 11.432C185.809 11.976 186.977 12.744 187.809 13.736C188.673 14.728 189.105 15.864 189.105 17.144C189.105 18.2 188.689 19.048 187.857 19.688C187.025 20.328 185.921 20.648 184.545 20.648C184.129 20.648 183.825 20.632 183.633 20.6C183.633 19.32 183.233 18.28 182.433 17.48C181.633 16.648 180.593 16.232 179.313 16.232C178.033 16.232 176.977 16.632 176.145 17.432C175.345 18.2 174.945 19.192 174.945 20.408V25.976C174.945 27.096 175.345 28.008 176.145 28.712C176.977 29.416 178.049 29.768 179.361 29.768C180.641 29.768 181.681 29.368 182.481 28.568C183.313 27.768 183.729 26.728 183.729 25.448C183.953 25.416 184.273 25.4 184.689 25.4C186.065 25.4 187.169 25.72 188.001 26.36C188.833 26.968 189.249 27.8 189.249 28.856C189.249 30.136 188.817 31.272 187.953 32.264C187.121 33.256 185.937 34.04 184.401 34.616C182.865 35.16 181.121 35.432 179.169 35.432ZM200.811 35.432C199.243 35.432 197.771 35.128 196.395 34.52C195.051 33.88 193.963 32.968 193.131 31.784C192.299 30.568 191.883 29.112 191.883 27.416C191.883 25.72 192.331 24.264 193.227 23.048C194.123 21.8 195.307 20.856 196.779 20.216C198.283 19.576 199.915 19.256 201.675 19.256C203.147 19.256 204.443 19.48 205.563 19.928C206.715 20.376 207.787 21.032 208.779 21.896L209.019 21.608C208.347 21 207.819 20.568 207.435 20.312V19.688C207.435 18.472 206.987 17.512 206.091 16.808C205.227 16.072 203.995 15.704 202.395 15.704C200.987 15.704 199.739 15.96 198.651 16.472C197.563 16.984 196.683 17.736 196.011 18.728C195.243 18.536 194.587 18.184 194.043 17.672C193.531 17.128 193.275 16.536 193.275 15.896C193.275 14.904 193.707 14.008 194.571 13.208C195.435 12.376 196.603 11.736 198.075 11.288C199.579 10.808 201.227 10.568 203.019 10.568C206.507 10.568 209.195 11.368 211.083 12.968C212.971 14.568 213.915 16.744 213.915 19.496V31.16C213.915 32.664 213.419 33.752 212.427 34.424C211.467 35.096 209.931 35.432 207.819 35.432V33.56C208.299 33.112 208.683 32.712 208.971 32.36L208.731 32.12C207.675 33.208 206.571 34.04 205.419 34.616C204.267 35.16 202.731 35.432 200.811 35.432ZM202.635 30.728C204.171 30.728 205.371 30.44 206.235 29.864C207.099 29.288 207.531 28.456 207.531 27.368C207.531 26.312 207.083 25.48 206.187 24.872C205.323 24.264 204.139 23.96 202.635 23.96C201.291 23.96 200.219 24.264 199.419 24.872C198.651 25.48 198.267 26.312 198.267 27.368C198.267 28.456 198.651 29.288 199.419 29.864C200.219 30.44 201.291 30.728 202.635 30.728ZM228.844 35.432C226.124 35.432 224.124 34.648 222.844 33.08C221.564 31.512 220.924 29.496 220.924 27.032V15.848H215.836C215.836 14.216 216.14 13 216.748 12.2C217.356 11.4 218.156 11 219.148 11H221.02V7.208C221.02 5.832 221.548 4.856 222.604 4.28C223.66 3.672 225.26 3.368 227.404 3.368V11H233.788C233.788 12.728 233.468 13.976 232.828 14.744C232.188 15.48 231.132 15.848 229.66 15.848H227.5V26.792C227.5 27.848 227.708 28.616 228.124 29.096C228.54 29.544 229.26 29.768 230.284 29.768C231.404 29.768 232.556 29.448 233.74 28.808C234.092 29.128 234.364 29.528 234.556 30.008C234.78 30.488 234.892 30.968 234.892 31.448C234.892 32.088 234.668 32.712 234.22 33.32C233.772 33.928 233.084 34.44 232.156 34.856C231.26 35.24 230.156 35.432 228.844 35.432ZM243.475 8.744C242.259 8.744 241.235 8.392 240.403 7.688C239.603 6.952 239.203 6.008 239.203 4.856C239.203 3.704 239.603 2.776 240.403 2.072C241.235 1.336 242.259 0.967998 243.475 0.967998C244.691 0.967998 245.699 1.336 246.499 2.072C247.331 2.776 247.747 3.704 247.747 4.856C247.747 6.008 247.331 6.952 246.499 7.688C245.699 8.392 244.691 8.744 243.475 8.744ZM240.163 14.408C240.163 13.032 240.707 12.056 241.795 11.48C242.883 10.872 244.531 10.568 246.739 10.568V31.592C246.739 32.968 246.195 33.96 245.107 34.568C244.019 35.144 242.371 35.432 240.163 35.432V14.408ZM262.18 35.432C260.068 35.432 258.148 35.048 256.42 34.28C254.692 33.512 253.332 32.456 252.34 31.112C251.348 29.736 250.852 28.184 250.852 26.456V20.072C250.852 18.312 251.332 16.712 252.292 15.272C253.252 13.8 254.596 12.648 256.324 11.816C258.052 10.984 260.004 10.568 262.18 10.568C264.356 10.568 266.308 10.984 268.036 11.816C269.764 12.648 271.108 13.8 272.068 15.272C273.028 16.712 273.508 18.312 273.508 20.072V26.456C273.508 28.184 273.012 29.736 272.02 31.112C271.028 32.456 269.668 33.512 267.94 34.28C266.212 35.048 264.292 35.432 262.18 35.432ZM262.18 29.768C263.684 29.768 264.852 29.432 265.684 28.76C266.516 28.088 266.932 27.16 266.932 25.976V20.408C266.932 19.16 266.5 18.152 265.636 17.384C264.804 16.616 263.652 16.232 262.18 16.232C260.708 16.232 259.54 16.616 258.676 17.384C257.844 18.152 257.428 19.16 257.428 20.408V25.976C257.428 27.16 257.844 28.088 258.676 28.76C259.508 29.432 260.676 29.768 262.18 29.768ZM276.609 15.56C276.609 13.96 277.137 12.728 278.193 11.864C279.249 11 280.817 10.568 282.897 10.568V13.4C282.417 13.912 282.017 14.456 281.697 15.032L282.033 15.224C282.993 13.752 284.209 12.616 285.681 11.816C287.185 10.984 288.849 10.568 290.673 10.568C292.273 10.568 293.681 10.936 294.897 11.672C296.145 12.408 297.121 13.432 297.825 14.744C298.529 16.024 298.881 17.464 298.881 19.064V31.592C298.881 32.968 298.337 33.96 297.249 34.568C296.161 35.144 294.513 35.432 292.305 35.432V20.072C292.305 18.984 291.953 18.072 291.249 17.336C290.577 16.6 289.617 16.232 288.369 16.232C286.833 16.232 285.585 16.728 284.625 17.72C283.665 18.712 283.185 19.96 283.185 21.464V31.592C283.185 32.968 282.641 33.96 281.553 34.568C280.497 35.144 278.849 35.432 276.609 35.432V15.56Z" fill="#4D4D4D"/>
</svg>
