<svg width="208" height="26" viewBox="0 0 208 26" fill="none" xmlns="http://www.w3.org/2000/svg">
<path d="M11.2853 25H5.38667L0.178667 3.12267H6.39467L7.384 10.664L8.85867 17.9813L10.744 10.664L11.2293 8.66667L9.792 3.12267H15.896L17.24 10.664L18.8827 17.9813L19.9093 10.664L21.0107 3.12267H26.6853L21.8693 25H15.504L13.208 16.208L11.2853 25ZM27.1348 25V3.12267H33.5001V25H27.1348ZM42.5622 25.392C41.604 25.392 40.708 25.3049 39.8742 25.1307C39.0529 24.9689 38.3622 24.7511 37.8022 24.4773C37.2422 24.2036 36.7818 23.9422 36.4209 23.6933C36.0724 23.4444 35.78 23.1956 35.5435 22.9467L36.0102 18.4107C36.5204 19.0951 37.2049 19.6924 38.0635 20.2027C38.9222 20.7004 39.8493 20.9493 40.8449 20.9493C41.8404 20.9493 42.556 20.8436 42.9915 20.632C43.4395 20.4204 43.6635 20.0347 43.6635 19.4747C43.6635 18.8773 43.4084 18.3671 42.8982 17.944C42.4004 17.5209 41.5355 17.0107 40.3035 16.4133C39.8555 16.1893 39.476 15.9902 39.1649 15.816C38.8538 15.6293 38.4369 15.3307 37.9142 14.92C37.404 14.4969 36.9871 14.0613 36.6635 13.6133C36.34 13.1529 36.0538 12.568 35.8049 11.8587C35.556 11.1369 35.4315 10.3653 35.4315 9.544C35.4315 5.10133 37.9391 2.88 42.9542 2.88C43.7507 2.88 44.4973 2.96711 45.1942 3.14133C45.9035 3.30311 46.4573 3.48356 46.8555 3.68267C47.2538 3.88178 47.6147 4.11822 47.9382 4.392C48.2742 4.65333 48.4858 4.84 48.5729 4.952C48.66 5.05156 48.7222 5.13244 48.7595 5.19467L47.8262 8.79733C47.3409 8.22489 46.7311 7.80178 45.9969 7.528C45.2751 7.24178 44.5844 7.09867 43.9249 7.09867C42.332 7.09867 41.5355 7.59645 41.5355 8.592C41.5355 8.85333 41.5853 9.08978 41.6849 9.30133C41.7844 9.51289 41.9462 9.70578 42.1702 9.88C42.3942 10.0542 42.5995 10.2036 42.7862 10.328C42.9853 10.4524 43.2529 10.608 43.5889 10.7947C43.9373 10.9689 44.1987 11.112 44.3729 11.224C46.1898 11.9956 47.5213 12.9102 48.3675 13.968C49.2262 15.0258 49.6555 16.3138 49.6555 17.832C49.6555 20.296 49.0458 22.1751 47.8262 23.4693C46.6191 24.7511 44.8644 25.392 42.5622 25.392ZM64.8681 25H51.6335V3.12267H64.5881L64.2148 7.528L57.8121 7.34133V11.56H62.8521V15.928L57.8121 15.5547V20.52L64.8681 20.3333V25ZM87.29 25H74.0554V3.12267H87.01L86.6367 7.528L80.234 7.34133V11.56H85.274V15.928L80.234 15.5547V20.52L87.29 20.3333V25ZM99.625 25L98.897 22.592C98.7975 22.7662 98.6793 22.9404 98.5424 23.1147C98.4179 23.2889 98.2126 23.5129 97.9264 23.7867C97.6402 24.048 97.3353 24.2782 97.0117 24.4773C96.6882 24.6764 96.2837 24.8507 95.7984 25C95.313 25.1493 94.8028 25.224 94.2677 25.224C92.2144 25.224 90.7086 24.5209 89.7504 23.1147C88.7922 21.7084 88.313 19.7547 88.313 17.2533C88.313 15.6853 88.537 14.2916 88.985 13.072C89.433 11.84 90.1362 10.8507 91.0944 10.104C92.0526 9.35733 93.2099 8.984 94.5664 8.984C95.3753 8.984 96.097 9.07111 96.7317 9.24533C97.3664 9.41956 97.9139 9.63111 98.3744 9.88V4.224L96.321 3.53333V1.48L102.929 0.546667H104.385V25H99.625ZM96.993 21.5653C97.217 21.5653 97.4473 21.528 97.6837 21.4533C97.9202 21.3662 98.1504 21.248 98.3744 21.0987V11.7093C97.9886 11.6222 97.6339 11.5787 97.3104 11.5787C95.6553 11.5911 94.8215 12.8667 94.809 15.4053V18.0187C94.809 19.1884 95.0144 20.072 95.425 20.6693C95.8357 21.2667 96.3584 21.5653 96.993 21.5653ZM116.037 22.5173C115.962 22.6916 115.807 22.9218 115.57 23.208C115.346 23.4942 115.048 23.8116 114.674 24.16C114.301 24.496 113.841 24.7822 113.293 25.0187C112.746 25.2676 112.192 25.392 111.632 25.392C109.877 25.392 108.62 24.8693 107.861 23.824C107.114 22.7787 106.741 21.0364 106.741 18.5973V11.952L106.088 11.28V9.13333H112.864V19.7733C112.851 20.3333 112.945 20.7502 113.144 21.024C113.343 21.2853 113.704 21.416 114.226 21.416C114.301 21.416 114.37 21.416 114.432 21.416C114.494 21.4036 114.556 21.3911 114.618 21.3787C114.681 21.3538 114.73 21.3351 114.768 21.3227C114.818 21.3102 114.874 21.2916 114.936 21.2667C114.998 21.2293 115.048 21.1982 115.085 21.1733C115.122 21.1484 115.172 21.1173 115.234 21.08C115.297 21.0302 115.34 20.9929 115.365 20.968C115.402 20.9431 115.452 20.9058 115.514 20.856C115.589 20.7938 115.645 20.7502 115.682 20.7253V11.952L114.674 11.28V9.13333H121.786V25H116.616L116.037 22.5173ZM136.842 23.4507L136.674 23.656C136.562 23.7804 136.363 23.9422 136.077 24.1413C135.803 24.328 135.467 24.5209 135.069 24.72C134.683 24.9067 134.161 25.0622 133.501 25.1867C132.854 25.3236 132.157 25.392 131.41 25.392C128.884 25.392 126.949 24.6516 125.605 23.1707C124.274 21.6898 123.608 19.7298 123.608 17.2907C123.608 15.9716 123.813 14.7707 124.224 13.688C124.634 12.6053 125.194 11.7093 125.904 11C126.626 10.2782 127.466 9.72444 128.424 9.33867C129.394 8.94044 130.44 8.74133 131.56 8.74133C133.725 8.74133 135.405 9.25778 136.6 10.2907C136.861 10.552 136.992 10.6827 136.992 10.6827L136.712 15.0693L134.061 15.088L132.997 12.232C132.898 12.2071 132.761 12.1947 132.586 12.1947C131.454 12.1947 130.67 12.5867 130.234 13.3707C129.811 14.1422 129.6 15.4862 129.6 17.4027C129.6 18.2364 129.668 18.952 129.805 19.5493C129.942 20.1342 130.098 20.576 130.272 20.8747C130.446 21.1609 130.676 21.3849 130.962 21.5467C131.261 21.7084 131.504 21.8018 131.69 21.8267C131.877 21.8516 132.107 21.864 132.381 21.864C133.003 21.864 133.638 21.7893 134.285 21.64C134.945 21.4907 135.486 21.248 135.909 20.912L136.842 23.4507ZM146.911 23.3387L146.724 23.544C146.6 23.6933 146.407 23.8676 146.145 24.0667C145.896 24.2658 145.604 24.4649 145.268 24.664C144.944 24.8631 144.546 25.0311 144.073 25.168C143.6 25.3173 143.115 25.392 142.617 25.392C139.257 25.392 137.577 23.7307 137.577 20.408C137.577 19.7609 137.696 19.1698 137.932 18.6347C138.168 18.0871 138.473 17.6267 138.847 17.2533C139.22 16.88 139.668 16.5502 140.191 16.264C140.713 15.9653 141.236 15.7351 141.759 15.5733C142.294 15.3991 142.854 15.256 143.439 15.144C144.024 15.032 144.546 14.9573 145.007 14.92C145.467 14.8827 145.909 14.864 146.332 14.864V14.528C146.332 13.7689 146.127 13.2338 145.716 12.9227C145.318 12.6116 144.671 12.456 143.775 12.456C143.003 12.456 142.2 12.5493 141.367 12.736C140.533 12.9102 139.88 13.1218 139.407 13.3707L138.212 10.832C139.058 10.2844 140.16 9.80533 141.516 9.39467C142.872 8.97156 144.254 8.76 145.66 8.76C146.904 8.76 147.931 8.88444 148.74 9.13333C149.549 9.36978 150.202 9.78044 150.7 10.3653C151.21 10.9378 151.571 11.672 151.783 12.568C151.994 13.4516 152.1 14.5778 152.1 15.9467V23.544L152.623 25H147.508L146.911 23.3387ZM145.436 22.1067C145.598 22.1067 145.747 22.0756 145.884 22.0133C146.033 21.9387 146.145 21.8702 146.22 21.808C146.295 21.7333 146.332 21.696 146.332 21.696V17.216C145.573 17.216 144.969 17.4276 144.521 17.8507C144.073 18.2613 143.849 18.9022 143.849 19.7733C143.849 21.3289 144.378 22.1067 145.436 22.1067ZM158.855 25.392C157.175 25.392 155.999 24.888 155.327 23.88C154.668 22.872 154.338 21.1671 154.338 18.7653V12.4187H153.05V9.824L155.253 9.13333L157.157 4.784H160.442V9.13333H163.503V12.4187H160.386V19.3627C160.386 20.3582 160.529 21.0178 160.815 21.3413C161.101 21.6649 161.543 21.8267 162.141 21.8267C162.402 21.8267 162.638 21.7956 162.85 21.7333C163.061 21.6711 163.236 21.584 163.373 21.472V24.0107C163.186 24.1973 162.943 24.384 162.645 24.5707C162.346 24.7449 161.848 24.9253 161.151 25.112C160.467 25.2987 159.701 25.392 158.855 25.392ZM165.151 25V12.9227L164.031 12.232V10.2347L168.045 9.13333H171.162V25H165.151ZM167.858 7.416L164.797 4.336V3.68267L167.858 0.621333H168.567L171.759 3.68267V4.336L168.567 7.416H167.858ZM181.241 23.152C181.789 23.152 182.206 22.928 182.492 22.48C182.791 22.0196 182.94 21.3911 182.94 20.5947V14.696C182.94 12.2693 182.367 11.056 181.223 11.056C180.687 11.056 180.271 11.2738 179.972 11.7093C179.673 12.1449 179.524 12.7609 179.524 13.5573V19.624C179.524 21.976 180.096 23.152 181.241 23.152ZM181.092 25.392C178.242 25.392 176.158 24.7449 174.839 23.4507C173.519 22.1564 172.86 20.0907 172.86 17.2533C172.86 14.4409 173.526 12.3253 174.857 10.9067C176.189 9.47556 178.354 8.76 181.353 8.76C184.278 8.76 186.387 9.44444 187.681 10.8133C188.988 12.1698 189.641 14.2293 189.641 16.992C189.641 19.8542 188.951 21.9698 187.569 23.3387C186.2 24.7076 184.041 25.392 181.092 25.392ZM197.704 25H191.675V12.9227L190.555 12.232V10.2347L194.568 9.13333H197.741V11.5413L197.965 11.2613C198.115 11.0622 198.333 10.8258 198.619 10.552C198.917 10.2782 199.247 10.0107 199.608 9.74933C199.969 9.47556 200.398 9.24533 200.896 9.05867C201.406 8.85956 201.904 8.76 202.389 8.76C204.094 8.76 205.295 9.22667 205.992 10.16C206.701 11.0933 207.056 12.6551 207.056 14.8453C207.056 14.92 207.056 15.032 207.056 15.1813C207.044 15.3307 207.037 15.4489 207.037 15.536V25H200.877V14.9947C200.915 13.8249 200.417 13.24 199.384 13.24C199.309 13.24 199.235 13.2462 199.16 13.2587C199.098 13.2711 199.036 13.2836 198.973 13.296C198.924 13.3084 198.861 13.3333 198.787 13.3707C198.725 13.3956 198.669 13.4204 198.619 13.4453C198.569 13.4578 198.513 13.4889 198.451 13.5387C198.389 13.576 198.339 13.6071 198.301 13.632C198.264 13.6569 198.208 13.7004 198.133 13.7627C198.071 13.8124 198.021 13.8498 197.984 13.8747C197.959 13.8996 197.909 13.9431 197.835 14.0053C197.773 14.0551 197.729 14.0924 197.704 14.1173V25Z" fill="#0055D6"/>
</svg>
