<svg width="241" height="45" viewBox="0 0 241 45" fill="none" xmlns="http://www.w3.org/2000/svg">
<path d="M24.4453 2.20312C24.5911 2.34896 24.6276 3.07812 24.5547 4.39062C24.5182 5.66667 24.3906 7.30729 24.1719 9.3125C23.9531 11.3177 23.6797 13.5964 23.3516 16.1484C23.0599 18.7005 22.7318 21.2891 22.3672 23.9141C22.0026 26.5391 21.6198 29.1094 21.2188 31.625C20.8542 34.1042 20.4896 36.3281 20.125 38.2969C19.7969 40.2292 19.487 41.7969 19.1953 43C18.9401 44.1667 18.7396 44.75 18.5938 44.75C18.3385 44.75 18.0469 44.6042 17.7188 44.3125C17.3906 44.0208 17.0625 43.6562 16.7344 43.2188C16.4427 42.8177 16.1693 42.4167 15.9141 42.0156C15.6953 41.5781 15.5677 41.2318 15.5312 40.9766C15.4219 40.5026 15.2031 39.5911 14.875 38.2422C14.5833 36.8932 14.2917 35.2161 14 33.2109C13.8177 31.8984 13.6354 30.513 13.4531 29.0547C13.2708 27.8151 13.0703 26.4661 12.8516 25.0078C12.6693 23.513 12.487 22.0182 12.3047 20.5234C12.1589 21.4714 11.9766 22.6016 11.7578 23.9141C11.5391 25.2266 11.3203 26.4844 11.1016 27.6875C10.8464 29.1094 10.5729 30.5495 10.2812 32.0078C10.026 33.5391 9.7526 35.0521 9.46094 36.5469C9.16927 38.0052 8.8776 39.3359 8.58594 40.5391C8.29427 41.7057 8.02083 42.6536 7.76562 43.3828C7.54688 44.112 7.36458 44.4948 7.21875 44.5312C6.96354 44.6042 6.65365 44.513 6.28906 44.2578C5.92448 44.0391 5.5599 43.7292 5.19531 43.3281C4.83073 42.9271 4.5026 42.5078 4.21094 42.0703C3.95573 41.5964 3.79167 41.1953 3.71875 40.8672C3.20833 37.2943 2.77083 34.0859 2.40625 31.2422C2.07812 28.3984 1.78646 25.8828 1.53125 23.6953C1.27604 21.4714 1.07552 19.5573 0.929688 17.9531C0.783854 16.349 0.65625 14.9635 0.546875 13.7969C0.328125 11.099 0.236979 9.22135 0.273438 8.16406C0.382812 7.39844 0.674479 6.63281 1.14844 5.86719C1.6224 5.0651 2.15104 4.35417 2.73438 3.73438C3.31771 3.11458 3.86458 2.64062 4.375 2.3125C4.92188 1.94792 5.28646 1.82031 5.46875 1.92969C5.57812 2.0026 5.6875 2.49479 5.79688 3.40625C5.90625 4.28125 5.9974 5.44792 6.07031 6.90625C6.14323 8.32812 6.21615 9.96875 6.28906 11.8281C6.36198 13.6875 6.41667 15.638 6.45312 17.6797C6.52604 19.6849 6.58073 21.7083 6.61719 23.75C6.6901 25.7917 6.76302 27.7057 6.83594 29.4922C6.98177 28.5807 7.1276 27.5417 7.27344 26.375C7.45573 25.2083 7.63802 23.987 7.82031 22.7109C8.03906 21.4349 8.23958 20.1771 8.42188 18.9375C8.60417 17.6615 8.76823 16.4948 8.91406 15.4375C9.09635 14.3802 9.26042 13.4688 9.40625 12.7031C9.58854 11.9375 9.73438 11.4089 9.84375 11.1172C10.2083 10.2786 10.6276 9.54948 11.1016 8.92969C11.612 8.3099 12.0859 7.79948 12.5234 7.39844C12.9974 6.9974 13.4167 6.70573 13.7812 6.52344C14.1823 6.30469 14.4557 6.21354 14.6016 6.25C14.638 6.25 14.7109 6.63281 14.8203 7.39844C14.9297 8.1276 15.0391 9.09375 15.1484 10.2969C15.2943 11.5 15.4401 12.8854 15.5859 14.4531C15.7682 15.9844 15.9505 17.5885 16.1328 19.2656C16.3151 20.9062 16.4974 22.5469 16.6797 24.1875C16.862 25.7917 17.0625 27.25 17.2812 28.5625C17.3542 27.3594 17.4271 26.0286 17.5 24.5703C17.5729 23.0755 17.6458 21.5625 17.7188 20.0312C17.8281 18.5 17.9193 17.0052 17.9922 15.5469C18.1016 14.0885 18.1927 12.7578 18.2656 11.5547C18.375 10.3516 18.4661 9.33073 18.5391 8.49219C18.6484 7.61719 18.7578 7.03385 18.8672 6.74219C19.0859 6.01302 19.4688 5.33854 20.0156 4.71875C20.5625 4.0625 21.1276 3.53385 21.7109 3.13281C22.3307 2.69531 22.8958 2.40365 23.4062 2.25781C23.9531 2.07552 24.2995 2.05729 24.4453 2.20312ZM40.1406 8.98438C39.5208 9.02083 38.901 9.03906 38.2812 9.03906C37.6979 9.0026 37.151 8.98438 36.6406 8.98438C36.0573 8.98438 35.5104 8.96615 35 8.92969C35.0729 10.862 35.0911 13.1224 35.0547 15.7109C35.0547 18.263 35.0182 20.888 34.9453 23.5859C34.9089 26.2839 34.8359 28.9271 34.7266 31.5156C34.6536 34.0677 34.5625 36.3281 34.4531 38.2969C35.8385 38.2604 37.0599 38.2604 38.1172 38.2969C39.1745 38.3333 39.7396 38.388 39.8125 38.4609C39.8854 38.5703 39.8854 38.9349 39.8125 39.5547C39.7396 40.138 39.6302 40.7943 39.4844 41.5234C39.3385 42.2161 39.1927 42.8542 39.0469 43.4375C38.901 44.0573 38.7917 44.4401 38.7188 44.5859C37.6979 44.6224 36.75 44.6224 35.875 44.5859C35.0365 44.5859 34.3073 44.5495 33.6875 44.4766C32.9583 44.4401 32.3021 44.3854 31.7188 44.3125C31.1354 44.2031 30.5156 44.0755 29.8594 43.9297C29.3125 43.7839 28.6745 43.6016 27.9453 43.3828C27.2526 43.1641 26.5417 42.8906 25.8125 42.5625C25.6667 42.4896 25.4844 42.2891 25.2656 41.9609C25.0833 41.6328 24.8828 41.2865 24.6641 40.9219C24.4818 40.5208 24.3359 40.138 24.2266 39.7734C24.0807 39.4089 24.0078 39.1536 24.0078 39.0078C24.0078 38.9714 24.1719 38.9349 24.5 38.8984C24.8281 38.8255 25.2839 38.7708 25.8672 38.7344C26.4505 38.6615 27.1068 38.6068 27.8359 38.5703C28.5651 38.4974 29.349 38.4427 30.1875 38.4062C30.1146 37.349 30.0052 35.9635 29.8594 34.25C29.75 32.5 29.6224 30.6224 29.4766 28.6172C29.3672 26.5755 29.2396 24.4974 29.0938 22.3828C28.9844 20.2318 28.8932 18.2448 28.8203 16.4219C28.7474 14.5625 28.7109 12.9401 28.7109 11.5547C28.7109 10.1693 28.7656 9.20312 28.875 8.65625C28.9115 8.58333 28.9297 8.52865 28.9297 8.49219C28.9297 8.41927 28.9479 8.34635 28.9844 8.27344L27.4531 7.89062C27.0156 7.78125 26.5417 7.65365 26.0312 7.50781C25.5208 7.36198 25.0104 7.19792 24.5 7.01562C24.3542 6.94271 24.1719 6.74219 23.9531 6.41406C23.6979 6.08594 23.4609 5.72135 23.2422 5.32031C22.987 4.91927 22.7865 4.55469 22.6406 4.22656C22.4583 3.86198 22.3672 3.60677 22.3672 3.46094C22.3672 3.38802 22.8411 3.3151 23.7891 3.24219C24.7005 3.13281 25.849 3.04167 27.2344 2.96875C28.6198 2.89583 30.1146 2.84115 31.7188 2.80469C33.3594 2.76823 34.8724 2.75 36.2578 2.75C37.6797 2.75 38.8646 2.76823 39.8125 2.80469C40.7969 2.80469 41.3255 2.84115 41.3984 2.91406C41.5078 3.02344 41.5078 3.38802 41.3984 4.00781C41.3255 4.59115 41.1979 5.2474 41.0156 5.97656C40.8698 6.66927 40.7057 7.32552 40.5234 7.94531C40.3776 8.52865 40.25 8.875 40.1406 8.98438ZM61.1953 9.91406C61.2318 10.4609 61.1589 11.2812 60.9766 12.375C60.8307 13.4688 60.5755 14.5625 60.2109 15.6562C59.8464 16.75 59.3724 17.7161 58.7891 18.5547C58.2422 19.3568 57.6042 19.7578 56.875 19.7578C56.5104 19.7578 56.2005 19.5391 55.9453 19.1016C55.6901 18.6641 55.4714 18.099 55.2891 17.4062C55.1068 16.7135 54.9609 15.9479 54.8516 15.1094C54.7422 14.2344 54.6328 13.3958 54.5234 12.5938C54.4505 11.7917 54.3776 11.0625 54.3047 10.4062C54.2682 9.71354 54.2318 9.20312 54.1953 8.875C54.0495 8.65625 53.776 8.4375 53.375 8.21875C53.0104 7.96354 52.6823 7.83594 52.3906 7.83594C52.0625 7.83594 51.6615 8.14583 51.1875 8.76562C50.75 9.38542 50.3307 10.1146 49.9297 10.9531C49.5286 11.7917 49.2005 12.6302 48.9453 13.4688C48.6901 14.2708 48.5807 14.8906 48.6172 15.3281C48.6172 15.6198 48.8906 16.1302 49.4375 16.8594C50.0208 17.5885 50.7318 18.4453 51.5703 19.4297C52.4089 20.4141 53.3203 21.4896 54.3047 22.6562C55.2891 23.7865 56.2005 24.9167 57.0391 26.0469C57.8776 27.1771 58.5885 28.2526 59.1719 29.2734C59.7552 30.2943 60.0651 31.1693 60.1016 31.8984C60.1745 32.7734 59.974 33.9036 59.5 35.2891C59.0625 36.638 58.4974 37.9505 57.8047 39.2266C57.112 40.5026 56.3646 41.6146 55.5625 42.5625C54.7969 43.474 54.1042 43.9479 53.4844 43.9844C53.0833 44.0208 52.5547 43.8385 51.8984 43.4375C51.2422 43.0729 50.5312 42.5807 49.7656 41.9609C49 41.3411 48.2161 40.6667 47.4141 39.9375C46.6484 39.1719 45.9193 38.4245 45.2266 37.6953C44.5703 36.9661 44.0052 36.3099 43.5312 35.7266C43.0938 35.1068 42.8385 34.651 42.7656 34.3594C42.6198 33.9219 42.5286 33.3385 42.4922 32.6094C42.4922 31.8438 42.5286 31.1146 42.6016 30.4219C42.7109 29.6927 42.8385 29.0729 42.9844 28.5625C43.1667 28.0156 43.3854 27.7422 43.6406 27.7422C43.8229 27.7422 44.1146 27.9792 44.5156 28.4531C44.9531 28.9271 45.4453 29.5286 45.9922 30.2578C46.5391 30.987 47.1224 31.7891 47.7422 32.6641C48.3984 33.5026 49.0182 34.2865 49.6016 35.0156C50.1849 35.7448 50.7135 36.3646 51.1875 36.875C51.6615 37.349 52.0443 37.5677 52.3359 37.5312C52.5547 37.5312 52.7917 37.3672 53.0469 37.0391C53.3021 36.6745 53.5391 36.2552 53.7578 35.7812C53.9766 35.2708 54.1589 34.7604 54.3047 34.25C54.4505 33.7396 54.5234 33.3385 54.5234 33.0469C54.487 32.6094 54.1224 31.9896 53.4297 31.1875C52.7734 30.349 51.9349 29.4193 50.9141 28.3984C49.9297 27.3411 48.8542 26.2474 47.6875 25.1172C46.5573 23.987 45.4818 22.9115 44.4609 21.8906C43.4766 20.8333 42.638 19.8854 41.9453 19.0469C41.2891 18.2083 40.9427 17.5703 40.9062 17.1328C40.8698 16.6953 40.9974 16.0208 41.2891 15.1094C41.5807 14.1615 41.9635 13.1042 42.4375 11.9375C42.9479 10.7708 43.513 9.58594 44.1328 8.38281C44.7526 7.17969 45.3906 6.06771 46.0469 5.04688C46.7031 4.02604 47.3411 3.20573 47.9609 2.58594C48.5807 1.92969 49.1276 1.60156 49.6016 1.60156C50.2214 1.60156 50.9323 1.7474 51.7344 2.03906C52.5365 2.29427 53.3568 2.65885 54.1953 3.13281C55.0703 3.57031 55.9089 4.08073 56.7109 4.66406C57.5495 5.2474 58.2969 5.84896 58.9531 6.46875C59.6094 7.05208 60.138 7.65365 60.5391 8.27344C60.9401 8.85677 61.1589 9.40365 61.1953 9.91406ZM80.1172 11.6641C79.9714 11.8464 79.0781 11.8646 77.4375 11.7188C75.7969 11.5729 73.2083 11.3359 69.6719 11.0078C69.6719 12.2109 69.6719 13.6875 69.6719 15.4375C69.7083 17.1875 69.7083 19.0651 69.6719 21.0703C72.4062 21.3255 74.5391 21.5625 76.0703 21.7812C77.6016 22 78.4036 22.1458 78.4766 22.2188C78.6224 22.3646 78.6771 22.6745 78.6406 23.1484C78.6042 23.5859 78.513 24.0781 78.3672 24.625C78.2214 25.1719 78.0391 25.7005 77.8203 26.2109C77.6016 26.6849 77.3828 26.9948 77.1641 27.1406C76.9818 27.2135 76.2526 27.3229 74.9766 27.4688C73.737 27.5781 71.9688 27.6875 69.6719 27.7969C69.6719 29.3646 69.6536 30.9141 69.6172 32.4453C69.6172 33.9766 69.599 35.3802 69.5625 36.6562C73.099 36.6927 75.6693 36.7656 77.2734 36.875C78.9141 36.9479 79.8073 37.0573 79.9531 37.2031C80.099 37.3854 80.099 37.7318 79.9531 38.2422C79.8438 38.7526 79.6432 39.2995 79.3516 39.8828C79.0964 40.4297 78.8047 40.9766 78.4766 41.5234C78.1849 42.0703 77.9479 42.4531 77.7656 42.6719C77.6927 42.7448 77.2552 42.7812 76.4531 42.7812C75.651 42.7448 74.7578 42.6901 73.7734 42.6172C72.7891 42.5443 71.8411 42.4714 70.9297 42.3984C70.0182 42.2891 69.4167 42.1979 69.125 42.125C68.5781 41.9427 67.9948 41.651 67.375 41.25C66.7552 40.8125 66.263 40.2656 65.8984 39.6094C65.8255 39.4271 65.6979 38.8255 65.5156 37.8047C65.3698 36.7474 65.2057 35.4167 65.0234 33.8125C64.8411 32.2083 64.6589 30.4036 64.4766 28.3984C64.2943 26.3932 64.112 24.3516 63.9297 22.2734C63.7474 20.1953 63.5833 18.1536 63.4375 16.1484C63.2917 14.1432 63.1641 12.3385 63.0547 10.7344C62.9818 9.09375 62.9453 7.74479 62.9453 6.6875C62.9453 5.59375 63 4.9375 63.1094 4.71875C63.2188 4.42708 63.7292 4.20833 64.6406 4.0625C65.5521 3.91667 66.6458 3.82552 67.9219 3.78906C69.1979 3.71615 70.5651 3.69792 72.0234 3.73438C73.5182 3.77083 74.9036 3.84375 76.1797 3.95312C77.4557 4.02604 78.5312 4.13542 79.4062 4.28125C80.2812 4.39062 80.7734 4.5 80.8828 4.60938C81.0286 4.79167 81.1016 5.21094 81.1016 5.86719C81.138 6.52344 81.1016 7.2526 80.9922 8.05469C80.9193 8.82031 80.7917 9.56771 80.6094 10.2969C80.4635 10.9896 80.2995 11.4453 80.1172 11.6641ZM109.867 11.6641C109.721 11.8464 108.828 11.8646 107.188 11.7188C105.547 11.5729 102.958 11.3359 99.4219 11.0078C99.4219 12.2109 99.4219 13.6875 99.4219 15.4375C99.4583 17.1875 99.4583 19.0651 99.4219 21.0703C102.156 21.3255 104.289 21.5625 105.82 21.7812C107.352 22 108.154 22.1458 108.227 22.2188C108.372 22.3646 108.427 22.6745 108.391 23.1484C108.354 23.5859 108.263 24.0781 108.117 24.625C107.971 25.1719 107.789 25.7005 107.57 26.2109C107.352 26.6849 107.133 26.9948 106.914 27.1406C106.732 27.2135 106.003 27.3229 104.727 27.4688C103.487 27.5781 101.719 27.6875 99.4219 27.7969C99.4219 29.3646 99.4036 30.9141 99.3672 32.4453C99.3672 33.9766 99.349 35.3802 99.3125 36.6562C102.849 36.6927 105.419 36.7656 107.023 36.875C108.664 36.9479 109.557 37.0573 109.703 37.2031C109.849 37.3854 109.849 37.7318 109.703 38.2422C109.594 38.7526 109.393 39.2995 109.102 39.8828C108.846 40.4297 108.555 40.9766 108.227 41.5234C107.935 42.0703 107.698 42.4531 107.516 42.6719C107.443 42.7448 107.005 42.7812 106.203 42.7812C105.401 42.7448 104.508 42.6901 103.523 42.6172C102.539 42.5443 101.591 42.4714 100.68 42.3984C99.7682 42.2891 99.1667 42.1979 98.875 42.125C98.3281 41.9427 97.7448 41.651 97.125 41.25C96.5052 40.8125 96.013 40.2656 95.6484 39.6094C95.5755 39.4271 95.4479 38.8255 95.2656 37.8047C95.1198 36.7474 94.9557 35.4167 94.7734 33.8125C94.5911 32.2083 94.4089 30.4036 94.2266 28.3984C94.0443 26.3932 93.862 24.3516 93.6797 22.2734C93.4974 20.1953 93.3333 18.1536 93.1875 16.1484C93.0417 14.1432 92.9141 12.3385 92.8047 10.7344C92.7318 9.09375 92.6953 7.74479 92.6953 6.6875C92.6953 5.59375 92.75 4.9375 92.8594 4.71875C92.9688 4.42708 93.4792 4.20833 94.3906 4.0625C95.3021 3.91667 96.3958 3.82552 97.6719 3.78906C98.9479 3.71615 100.315 3.69792 101.773 3.73438C103.268 3.77083 104.654 3.84375 105.93 3.95312C107.206 4.02604 108.281 4.13542 109.156 4.28125C110.031 4.39062 110.523 4.5 110.633 4.60938C110.779 4.79167 110.852 5.21094 110.852 5.86719C110.888 6.52344 110.852 7.2526 110.742 8.05469C110.669 8.82031 110.542 9.56771 110.359 10.2969C110.214 10.9896 110.049 11.4453 109.867 11.6641ZM127.75 6.79688C127.859 7.67188 127.896 9.42188 127.859 12.0469C127.859 13.1771 127.823 14.5443 127.75 16.1484C127.714 17.7526 127.641 19.6849 127.531 21.9453C127.422 24.1693 127.276 26.7578 127.094 29.7109C126.948 32.6276 126.747 35.9453 126.492 39.6641C126.419 40.0286 126.255 40.4297 126 40.8672C125.781 41.3047 125.526 41.7057 125.234 42.0703C124.943 42.4349 124.633 42.7448 124.305 43C123.977 43.2188 123.685 43.2917 123.43 43.2188C123.357 43.1823 123.266 42.8906 123.156 42.3438C123.083 41.7969 123.01 41.0312 122.938 40.0469C121.297 40.776 119.747 41.2682 118.289 41.5234C116.831 41.7786 115.646 41.6146 114.734 41.0312C114.37 40.8125 114.005 40.4297 113.641 39.8828C113.312 39.2995 113.003 38.625 112.711 37.8594C112.419 37.0938 112.182 36.2917 112 35.4531C111.818 34.5781 111.727 33.7578 111.727 32.9922C111.727 32.4453 111.763 31.7161 111.836 30.8047C111.909 29.8932 112 28.9089 112.109 27.8516C112.219 26.7578 112.346 25.6641 112.492 24.5703C112.638 23.4401 112.784 22.401 112.93 21.4531C113.076 20.5052 113.203 19.7031 113.312 19.0469C113.422 18.3906 113.513 17.9896 113.586 17.8438C113.659 17.4062 113.786 17.0417 113.969 16.75C114.188 16.4583 114.37 16.2396 114.516 16.0938C114.88 15.8021 115.409 15.5833 116.102 15.4375C116.831 15.2917 117.578 15.2005 118.344 15.1641C119.146 15.1276 119.893 15.1458 120.586 15.2188C121.279 15.2552 121.789 15.3281 122.117 15.4375H122.227C122.154 10.9167 122.154 7.4349 122.227 4.99219C122.299 2.54948 122.445 1.23698 122.664 1.05469C122.81 0.945312 123.138 1.03646 123.648 1.32812C124.159 1.61979 124.688 2.03906 125.234 2.58594C125.818 3.13281 126.346 3.78906 126.82 4.55469C127.331 5.28385 127.641 6.03125 127.75 6.79688ZM119.438 37.4219C119.948 37.3125 120.404 37.1849 120.805 37.0391C121.242 36.8568 121.607 36.6927 121.898 36.5469C122.227 36.401 122.5 36.2188 122.719 36C122.682 35.0521 122.646 33.9948 122.609 32.8281C122.573 31.625 122.536 30.3854 122.5 29.1094C122.464 27.8333 122.427 26.5391 122.391 25.2266C122.354 23.8776 122.318 22.5833 122.281 21.3438C122.281 20.9427 122.208 20.5964 122.062 20.3047C121.953 20.013 121.807 19.776 121.625 19.5938C121.516 19.5208 121.297 19.4297 120.969 19.3203C120.641 19.1745 120.258 19.0651 119.82 18.9922C119.419 18.8828 119.018 18.8281 118.617 18.8281C118.253 18.8281 117.997 18.901 117.852 19.0469C117.779 19.0833 117.706 19.4479 117.633 20.1406C117.596 20.7969 117.542 21.6354 117.469 22.6562C117.432 23.6406 117.378 24.7161 117.305 25.8828C117.268 27.0495 117.232 28.1432 117.195 29.1641C117.159 30.1849 117.122 31.0599 117.086 31.7891C117.049 32.5182 117.031 32.9193 117.031 32.9922C117.031 33.612 117.104 34.1953 117.25 34.7422C117.432 35.2891 117.651 35.7812 117.906 36.2188C118.161 36.6198 118.435 36.9479 118.727 37.2031C119.018 37.4219 119.255 37.4948 119.438 37.4219ZM143.008 13.7422C143.081 13.8516 143.19 14.362 143.336 15.2734C143.482 16.1849 143.628 17.3151 143.773 18.6641C143.956 20.013 144.12 21.4714 144.266 23.0391C144.448 24.6068 144.612 26.1016 144.758 27.5234C144.94 28.9453 145.086 30.2214 145.195 31.3516C145.305 32.4818 145.396 33.2474 145.469 33.6484C145.578 34.3047 145.706 35.0339 145.852 35.8359C145.997 36.6016 146.125 37.349 146.234 38.0781C146.344 38.7708 146.417 39.3724 146.453 39.8828C146.526 40.3932 146.508 40.7031 146.398 40.8125C146.326 40.9219 146.034 40.9583 145.523 40.9219C145.013 40.849 144.448 40.7396 143.828 40.5938C143.245 40.4115 142.68 40.2109 142.133 39.9922C141.622 39.737 141.294 39.5 141.148 39.2812C141.003 39.099 140.857 38.8255 140.711 38.4609C140.602 38.0964 140.456 37.4583 140.273 36.5469C139.872 37.0938 139.435 37.6771 138.961 38.2969C138.523 38.8802 138.086 39.4271 137.648 39.9375C137.211 40.4115 136.81 40.7943 136.445 41.0859C136.081 41.3776 135.807 41.5234 135.625 41.5234C135.333 41.5234 134.896 41.2318 134.312 40.6484C133.729 40.0286 133.146 39.3359 132.562 38.5703C131.979 37.8047 131.451 37.0755 130.977 36.3828C130.503 35.6901 130.247 35.2344 130.211 35.0156C130.138 34.7969 130.102 34.1953 130.102 33.2109C130.138 32.2266 130.174 31.1328 130.211 29.9297C130.284 28.6901 130.357 27.4688 130.43 26.2656C130.503 25.026 130.576 24.0417 130.648 23.3125C130.721 22.5833 130.794 21.7812 130.867 20.9062C130.977 19.9948 131.086 19.1562 131.195 18.3906C131.305 17.5885 131.396 16.8958 131.469 16.3125C131.578 15.7292 131.669 15.3828 131.742 15.2734C131.815 15.1641 132.016 15.1094 132.344 15.1094C132.708 15.0729 133.073 15.0911 133.438 15.1641C133.839 15.2005 134.203 15.2917 134.531 15.4375C134.859 15.5469 135.078 15.6927 135.188 15.875C135.26 16.0208 135.297 16.4948 135.297 17.2969C135.333 18.0625 135.352 19.0104 135.352 20.1406C135.352 21.2344 135.352 22.4375 135.352 23.75C135.352 25.026 135.333 26.2292 135.297 27.3594C135.297 28.4531 135.279 29.401 135.242 30.2031C135.242 30.9688 135.242 31.4245 135.242 31.5703C135.242 31.862 135.406 32.4271 135.734 33.2656C136.099 34.1042 136.464 34.9062 136.828 35.6719L139.672 32.2812C139.635 31.625 139.599 30.7865 139.562 29.7656C139.562 28.7448 139.544 27.6693 139.508 26.5391C139.471 25.4089 139.435 24.2604 139.398 23.0938C139.362 21.9271 139.344 20.8698 139.344 19.9219C139.344 18.974 139.344 18.1901 139.344 17.5703C139.344 16.9505 139.362 16.5859 139.398 16.4766C139.508 16.2578 139.727 15.9661 140.055 15.6016C140.383 15.237 140.747 14.8906 141.148 14.5625C141.549 14.2344 141.914 13.9792 142.242 13.7969C142.607 13.6146 142.862 13.5964 143.008 13.7422ZM157.391 13.0859C157.245 12.9401 156.935 12.7943 156.461 12.6484C155.987 12.5026 155.659 12.5573 155.477 12.8125C155.367 12.9583 155.185 13.4323 154.93 14.2344C154.674 15.0365 154.401 16.0573 154.109 17.2969C153.854 18.5365 153.617 19.9583 153.398 21.5625C153.216 23.1667 153.125 24.8255 153.125 26.5391C153.125 27.7786 153.18 28.9635 153.289 30.0938C153.398 31.1875 153.526 32.1536 153.672 32.9922C153.854 33.8307 154.055 34.5052 154.273 35.0156C154.529 35.526 154.784 35.7995 155.039 35.8359C155.258 35.8359 155.513 35.5807 155.805 35.0703C156.133 34.5599 156.443 33.9766 156.734 33.3203C157.062 32.6276 157.336 31.9896 157.555 31.4062C157.81 30.7865 157.992 30.3854 158.102 30.2031C158.393 29.7292 158.776 29.3281 159.25 29C159.724 28.6354 160.125 28.4531 160.453 28.4531C160.635 28.4531 160.763 28.5807 160.836 28.8359C160.945 29.0911 161.018 29.401 161.055 29.7656C161.128 30.0938 161.164 30.4401 161.164 30.8047C161.164 31.1693 161.164 31.4609 161.164 31.6797C161.164 32.0807 161.091 32.8281 160.945 33.9219C160.799 35.0156 160.581 36.1276 160.289 37.2578C160.034 38.388 159.724 39.3906 159.359 40.2656C159.031 41.1406 158.667 41.5599 158.266 41.5234C157.865 41.487 157.263 41.3047 156.461 40.9766C155.659 40.6484 154.839 40.2656 154 39.8281C153.198 39.3906 152.451 38.9531 151.758 38.5156C151.102 38.0417 150.701 37.6771 150.555 37.4219C150.409 37.1667 150.19 36.5469 149.898 35.5625C149.607 34.5417 149.297 33.3021 148.969 31.8438C148.677 30.3854 148.422 28.7812 148.203 27.0312C147.984 25.2812 147.875 23.5312 147.875 21.7812C147.875 20.0312 147.911 18.2995 147.984 16.5859C148.094 14.8724 148.258 13.3411 148.477 11.9922C148.695 10.6432 148.969 9.54948 149.297 8.71094C149.661 7.8724 150.099 7.4349 150.609 7.39844C152.031 7.2526 153.453 7.38021 154.875 7.78125C156.333 8.14583 157.628 8.65625 158.758 9.3125C159.924 9.93229 160.872 10.6068 161.602 11.3359C162.331 12.0286 162.714 12.612 162.75 13.0859C162.786 13.5964 162.75 14.3073 162.641 15.2188C162.568 16.1302 162.44 17.0599 162.258 18.0078C162.112 18.9193 161.93 19.7578 161.711 20.5234C161.529 21.2526 161.365 21.6719 161.219 21.7812C160.891 22.1094 160.508 22.4557 160.07 22.8203C159.633 23.1849 159.214 23.2578 158.812 23.0391C158.667 22.9661 158.539 22.6927 158.43 22.2188C158.32 21.7083 158.211 21.0885 158.102 20.3594C158.029 19.6302 157.956 18.8464 157.883 18.0078C157.81 17.1693 157.737 16.4036 157.664 15.7109C157.628 14.9818 157.573 14.3802 157.5 13.9062C157.464 13.3958 157.427 13.1224 157.391 13.0859ZM179.484 14.2344C179.703 14.4896 179.904 14.763 180.086 15.0547C180.268 15.3099 180.432 15.6745 180.578 16.1484C180.724 16.5859 180.833 17.1693 180.906 17.8984C181.016 18.6276 181.07 19.5755 181.07 20.7422C181.07 22.6016 181.016 24.4792 180.906 26.375C180.833 28.2344 180.76 29.875 180.688 31.2969C180.651 32.5729 180.615 33.7578 180.578 34.8516C180.542 35.9453 180.505 36.9115 180.469 37.75C180.432 38.5521 180.378 39.1901 180.305 39.6641C180.268 40.138 180.232 40.3932 180.195 40.4297C180.049 40.5391 179.812 40.5026 179.484 40.3203C179.193 40.1016 178.865 39.8281 178.5 39.5C178.172 39.1719 177.862 38.8255 177.57 38.4609C177.279 38.0964 177.096 37.8047 177.023 37.5859C177.023 37.4036 176.969 36.875 176.859 36C175.984 36.5104 175.018 36.875 173.961 37.0938C172.904 37.276 171.846 37.349 170.789 37.3125C169.768 37.2396 168.82 37.0391 167.945 36.7109C167.07 36.3828 166.414 35.9453 165.977 35.3984C165.794 35.1797 165.63 34.8516 165.484 34.4141C165.375 33.9766 165.266 33.4844 165.156 32.9375C165.083 32.3542 165.01 31.7526 164.938 31.1328C164.865 30.4766 164.81 29.875 164.773 29.3281C164.701 27.9062 164.883 26.6849 165.32 25.6641C165.758 24.6068 166.56 23.8229 167.727 23.3125C168.237 23.0938 168.911 22.9844 169.75 22.9844C170.625 22.9479 171.482 22.9844 172.32 23.0938C173.195 23.1667 173.979 23.276 174.672 23.4219C175.365 23.5312 175.802 23.6224 175.984 23.6953C175.839 21.8359 175.729 20.2318 175.656 18.8828C175.583 17.4974 175.438 16.6042 175.219 16.2031C175.036 15.9479 174.818 15.6927 174.562 15.4375C174.344 15.2552 174.052 15.0547 173.688 14.8359C173.323 14.6172 172.885 14.4531 172.375 14.3438C171.974 14.2708 171.609 14.4349 171.281 14.8359C170.99 15.2005 170.716 15.8568 170.461 16.8047C170.242 17.7161 170.115 19.1198 170.078 21.0156C168.802 21.0521 167.818 21.0521 167.125 21.0156C166.469 20.9427 165.977 20.8698 165.648 20.7969C165.247 20.724 165.01 20.6328 164.938 20.5234C164.865 20.3776 164.901 19.849 165.047 18.9375C165.193 17.9896 165.393 16.9688 165.648 15.875C165.94 14.7812 166.268 13.7422 166.633 12.7578C167.034 11.7734 167.453 11.1536 167.891 10.8984C168.766 10.388 169.805 10.2057 171.008 10.3516C172.247 10.4974 173.451 10.8073 174.617 11.2812C175.784 11.7552 176.823 12.2839 177.734 12.8672C178.646 13.4505 179.229 13.9062 179.484 14.2344ZM176.094 30.2031C176.094 30.0208 176.112 29.7839 176.148 29.4922C176.185 29.1641 176.203 28.8359 176.203 28.5078C176.203 28.1797 176.185 27.8698 176.148 27.5781C176.148 27.2865 176.112 27.0677 176.039 26.9219C175.93 26.7031 175.602 26.5208 175.055 26.375C174.544 26.2292 173.961 26.138 173.305 26.1016C172.648 26.0286 172.029 26.0104 171.445 26.0469C170.862 26.0469 170.461 26.1198 170.242 26.2656C169.951 26.4479 169.732 26.7031 169.586 27.0312C169.477 27.3594 169.404 27.8698 169.367 28.5625C169.367 28.8906 169.385 29.237 169.422 29.6016C169.458 29.9661 169.495 30.3307 169.531 30.6953C169.604 31.0234 169.677 31.3151 169.75 31.5703C169.859 31.8255 169.969 31.9896 170.078 32.0625C170.333 32.2448 170.771 32.4089 171.391 32.5547C172.047 32.6641 172.703 32.7005 173.359 32.6641C174.016 32.5911 174.617 32.3724 175.164 32.0078C175.711 31.6432 176.021 31.0417 176.094 30.2031ZM196.219 14.8906C196.255 15 196.255 15.3099 196.219 15.8203C196.182 16.2943 196.109 16.8411 196 17.4609C195.927 18.0443 195.836 18.5911 195.727 19.1016C195.617 19.5755 195.526 19.8672 195.453 19.9766C195.089 20.013 194.724 20.0312 194.359 20.0312C193.995 19.9948 193.648 19.9766 193.32 19.9766H192.172C192.135 22.3828 192.081 24.7708 192.008 27.1406C191.935 29.5104 191.844 31.6432 191.734 33.5391C191.625 35.3984 191.497 36.9115 191.352 38.0781C191.242 39.2448 191.133 39.8464 191.023 39.8828C190.768 39.9193 190.477 39.8099 190.148 39.5547C189.82 39.2995 189.492 38.9896 189.164 38.625C188.872 38.224 188.599 37.8229 188.344 37.4219C188.125 36.9844 187.997 36.6016 187.961 36.2734C187.779 34.0495 187.615 31.9349 187.469 29.9297C187.323 27.888 187.214 26.0833 187.141 24.5156C186.995 22.6927 186.904 20.9974 186.867 19.4297C186.466 19.3932 186.065 19.3385 185.664 19.2656C185.299 19.1927 184.917 19.1198 184.516 19.0469C184.151 18.974 183.768 18.901 183.367 18.8281C183.294 18.7552 183.203 18.5911 183.094 18.3359C182.984 18.0443 182.875 17.7344 182.766 17.4062C182.693 17.0781 182.62 16.7682 182.547 16.4766C182.474 16.1484 182.438 15.9115 182.438 15.7656C182.438 15.6562 182.839 15.5469 183.641 15.4375C184.479 15.3281 185.5 15.237 186.703 15.1641C186.63 13.2318 186.576 11.5547 186.539 10.1328C186.539 8.67448 186.594 7.6901 186.703 7.17969C186.812 6.48698 187.104 5.83073 187.578 5.21094C188.089 4.55469 188.617 3.98958 189.164 3.51562C189.747 3.04167 190.276 2.69531 190.75 2.47656C191.26 2.22135 191.589 2.14844 191.734 2.25781C191.844 2.33073 191.935 2.71354 192.008 3.40625C192.081 4.0625 192.135 4.95573 192.172 6.08594C192.208 7.21615 192.227 8.54688 192.227 10.0781C192.227 11.5729 192.227 13.1589 192.227 14.8359C193.32 14.763 194.25 14.7448 195.016 14.7812C195.781 14.7812 196.182 14.8177 196.219 14.8906ZM203.711 19.4844C203.784 19.6667 203.82 20.25 203.82 21.2344C203.857 22.1823 203.857 23.349 203.82 24.7344C203.82 26.0833 203.784 27.5417 203.711 29.1094C203.638 30.6406 203.547 32.099 203.438 33.4844C203.365 34.8333 203.273 36 203.164 36.9844C203.055 37.9323 202.945 38.4974 202.836 38.6797C202.508 39.1901 202.016 39.5182 201.359 39.6641C200.703 39.7734 200.229 39.7917 199.938 39.7188C199.792 39.7188 199.628 39.2995 199.445 38.4609C199.299 37.6224 199.154 36.5651 199.008 35.2891C198.862 34.013 198.734 32.6276 198.625 31.1328C198.516 29.638 198.424 28.2161 198.352 26.8672C198.279 25.4818 198.242 24.2786 198.242 23.2578C198.242 22.237 198.279 21.5807 198.352 21.2891C198.461 20.8151 198.771 20.3958 199.281 20.0312C199.828 19.6667 200.393 19.3932 200.977 19.2109C201.596 19.0286 202.161 18.9557 202.672 18.9922C203.219 18.9922 203.565 19.1562 203.711 19.4844ZM203.984 10.625C204.13 10.9167 204.185 11.3177 204.148 11.8281C204.148 12.3385 204.094 12.8672 203.984 13.4141C203.875 13.9609 203.729 14.4896 203.547 15C203.365 15.5104 203.182 15.9115 203 16.2031C202.635 16.7135 202.089 17.0417 201.359 17.1875C200.667 17.2969 200.156 17.3151 199.828 17.2422C199.573 17.2057 199.318 17.0417 199.062 16.75C198.807 16.4219 198.589 16.0391 198.406 15.6016C198.224 15.1276 198.096 14.6172 198.023 14.0703C197.951 13.5234 197.969 13.013 198.078 12.5391C198.188 12.0651 198.534 11.6458 199.117 11.2812C199.701 10.8802 200.32 10.5885 200.977 10.4062C201.633 10.1875 202.253 10.0964 202.836 10.1328C203.419 10.1328 203.802 10.2969 203.984 10.625ZM219.734 13.0859C219.99 13.3047 220.227 13.724 220.445 14.3438C220.701 14.9635 220.919 15.7109 221.102 16.5859C221.284 17.4609 221.448 18.4089 221.594 19.4297C221.74 20.4505 221.867 21.4531 221.977 22.4375C222.086 23.4219 222.159 24.3516 222.195 25.2266C222.268 26.0651 222.323 26.7578 222.359 27.3047C222.396 27.9609 222.414 28.6536 222.414 29.3828C222.451 30.0755 222.451 30.75 222.414 31.4062C222.414 32.026 222.378 32.5911 222.305 33.1016C222.268 33.612 222.195 33.9948 222.086 34.25C221.867 34.7969 221.484 35.1797 220.938 35.3984C220.427 35.5807 219.844 35.7083 219.188 35.7812C218.859 35.8177 218.294 35.8359 217.492 35.8359C216.727 35.7995 215.888 35.763 214.977 35.7266C214.102 35.6536 213.263 35.5807 212.461 35.5078C211.659 35.4349 211.057 35.362 210.656 35.2891C209.854 35.1068 209.271 34.8698 208.906 34.5781C208.578 34.2865 208.25 33.8672 207.922 33.3203C207.812 33.1016 207.721 32.5547 207.648 31.6797C207.576 30.7682 207.521 29.6927 207.484 28.4531C207.484 27.1771 207.503 25.8099 207.539 24.3516C207.576 22.8932 207.63 21.5078 207.703 20.1953C207.812 18.8828 207.922 17.7344 208.031 16.75C208.177 15.7656 208.359 15.1094 208.578 14.7812C208.943 14.2708 209.562 13.7969 210.438 13.3594C211.349 12.9219 212.169 12.5755 212.898 12.3203C213.263 12.2109 213.737 12.138 214.32 12.1016C214.94 12.0286 215.578 12.0286 216.234 12.1016C216.927 12.138 217.583 12.2474 218.203 12.4297C218.823 12.5755 219.333 12.7943 219.734 13.0859ZM216.672 30.0391C216.745 29.8932 216.818 29.4557 216.891 28.7266C217 27.9609 217.073 27.0495 217.109 25.9922C217.182 24.9349 217.219 23.8047 217.219 22.6016C217.255 21.3984 217.273 20.2865 217.273 19.2656C217.273 18.2448 217.237 17.388 217.164 16.6953C217.091 15.9661 217 15.5469 216.891 15.4375C216.708 15.2917 216.435 15.237 216.07 15.2734C215.742 15.2734 215.396 15.3281 215.031 15.4375C214.667 15.5104 214.339 15.6198 214.047 15.7656C213.755 15.875 213.555 15.9844 213.445 16.0938C212.971 16.4948 212.716 17.151 212.68 18.0625C212.68 18.3177 212.643 19.0469 212.57 20.25C212.534 21.4167 212.516 22.6927 212.516 24.0781C212.516 25.4271 212.534 26.6849 212.57 27.8516C212.643 29.0182 212.771 29.7292 212.953 29.9844C213.135 30.2396 213.391 30.4401 213.719 30.5859C214.083 30.6953 214.448 30.75 214.812 30.75C215.214 30.75 215.578 30.6953 215.906 30.5859C216.271 30.4401 216.526 30.2578 216.672 30.0391ZM240.898 20.0859C240.898 20.6693 240.826 21.5078 240.68 22.6016C240.57 23.6953 240.406 24.8984 240.188 26.2109C239.969 27.487 239.732 28.8177 239.477 30.2031C239.258 31.5521 239.021 32.7917 238.766 33.9219C238.547 35.0521 238.346 36 238.164 36.7656C238.018 37.5312 237.927 37.9505 237.891 38.0234C237.818 38.1328 237.617 38.2057 237.289 38.2422C236.997 38.2422 236.651 38.2057 236.25 38.1328C235.885 38.0599 235.539 37.9505 235.211 37.8047C234.919 37.6589 234.737 37.4766 234.664 37.2578C234.628 37.112 234.609 36.6016 234.609 35.7266C234.646 34.8516 234.682 33.8125 234.719 32.6094C234.792 31.3698 234.865 30.0573 234.938 28.6719C235.01 27.25 235.083 25.9375 235.156 24.7344C235.266 23.4948 235.339 22.4375 235.375 21.5625C235.448 20.6875 235.484 20.1589 235.484 19.9766C235.484 19.3203 235.411 18.7005 235.266 18.1172C235.156 17.4974 235.01 16.9688 234.828 16.5312C234.646 16.0938 234.427 15.7656 234.172 15.5469C233.953 15.2917 233.753 15.2005 233.57 15.2734C233.096 15.3464 232.695 15.474 232.367 15.6562C232.039 15.8021 231.766 15.9661 231.547 16.1484C231.292 16.3672 231.091 16.6224 230.945 16.9141C230.909 16.987 230.836 17.2057 230.727 17.5703C230.654 17.9349 230.617 18.3542 230.617 18.8281C230.617 18.974 230.617 19.5026 230.617 20.4141C230.617 21.2891 230.599 22.3464 230.562 23.5859C230.562 24.8255 230.544 26.1745 230.508 27.6328C230.508 29.0547 230.49 30.3854 230.453 31.625C230.453 32.8281 230.435 33.8672 230.398 34.7422C230.362 35.6172 230.326 36.1094 230.289 36.2188C230.216 36.4375 230.034 36.7474 229.742 37.1484C229.451 37.513 229.122 37.8594 228.758 38.1875C228.393 38.5156 228.047 38.7708 227.719 38.9531C227.391 39.099 227.172 39.0625 227.062 38.8438C226.953 38.7344 226.844 38.2057 226.734 37.2578C226.625 36.2734 226.497 35.0885 226.352 33.7031C226.242 32.2812 226.115 30.75 225.969 29.1094C225.823 27.4323 225.695 25.8281 225.586 24.2969C225.477 22.7656 225.385 21.3802 225.312 20.1406C225.24 18.901 225.185 18.0078 225.148 17.4609C225.112 16.6953 225.076 15.8385 225.039 14.8906C225.003 13.9062 224.966 12.9948 224.93 12.1562C224.93 11.2812 224.93 10.5339 224.93 9.91406C224.966 9.25781 225.039 8.85677 225.148 8.71094C225.221 8.5651 225.458 8.52865 225.859 8.60156C226.297 8.67448 226.753 8.82031 227.227 9.03906C227.737 9.22135 228.211 9.45833 228.648 9.75C229.086 10.0052 229.378 10.2604 229.523 10.5156C229.596 10.7344 229.688 10.9896 229.797 11.2812C229.906 11.5365 229.997 11.974 230.07 12.5938C230.69 12.2292 231.365 11.901 232.094 11.6094C232.823 11.2812 233.534 11.0443 234.227 10.8984C234.956 10.7161 235.648 10.6615 236.305 10.7344C236.961 10.7708 237.544 10.9531 238.055 11.2812C238.383 11.5365 238.711 11.974 239.039 12.5938C239.404 13.2135 239.714 13.9427 239.969 14.7812C240.26 15.6198 240.479 16.513 240.625 17.4609C240.807 18.3724 240.898 19.2474 240.898 20.0859Z" fill="#F5F5F5"/>
</svg>
